<?xml version="1.0" standalone="no"?>
<!DOCTYPE svg PUBLIC "-//W3C//DTD SVG 1.1//EN" "http://www.w3.org/Graphics/SVG/1.1/DTD/svg11.dtd" >
<svg xmlns="http://www.w3.org/2000/svg" xmlns:xlink="http://www.w3.org/1999/xlink" version="1.1">
<metadata>
Created by FontForge 20170731 at Sun Mar 17 04:38:25 2013
 By ,,,
Copyright 2012 Adobe Systems Incorporated. All rights reserved.
</metadata>
<defs>
<font id="Bimasakti" horiz-adv-x="781" >
  <font-face 
    font-family="Bimasakti"
    font-weight="400"
    font-stretch="normal"
    units-per-em="1000"
    panose-1="2 0 5 7 0 0 0 2 0 4"
    ascent="800"
    descent="-200"
    x-height="971"
    cap-height="972"
    bbox="-87 -432 1444 1083"
    underline-thickness="50"
    underline-position="-200"
    unicode-range="U+0020-007A"
  />
<missing-glyph horiz-adv-x="10" 
 />
    <glyph glyph-name=".notdef" horiz-adv-x="10" 
 />
    <glyph glyph-name=".null" horiz-adv-x="0" 
 />
    <glyph glyph-name="nonmarkingreturn" horiz-adv-x="333" 
 />
    <glyph glyph-name="space" unicode=" " horiz-adv-x="741" 
 />
    <glyph glyph-name="exclam" unicode="!" horiz-adv-x="357" 
d="M101 292l12 621h120l-13 -622q-79 0 -119 1zM161 221l-1 4q31 -5 54 -35t26 -67q1 -36 -18.5 -58.5t-48.5 -17.5q-30 5 -53 34t-26 66q-2 36 17.5 58t49.5 16zM85 955l-13 -704q4 0 15.5 -0.5t17.5 -0.5q-43 -32 -40 -108q4 -51 34.5 -90.5t69.5 -46.5q44 -6 73 30t26 92
q-3 35 -24.5 68t-54.5 54h59l14 706h-177zM42 209l16 788h233l-16 -790h-5q21 -37 26 -75q5 -78 -33 -128t-96 -41q-49 8 -87 58.5t-43 115.5q-1 39 6 72h-1z" />
    <glyph glyph-name="comma" unicode="," horiz-adv-x="267" 
d="M121 178v1q23 -3 36.5 -13.5t18.5 -29t6 -30t0 -31.5l-2 -68l-36 -1l2 67q-8 -1 -15 0q-24 4 -42 21.5t-19 39.5q-2 22 13 34.5t38 9.5zM44 131q2 -30 23.5 -54t51.5 -32l-1 -69l88 1l2 97v19q0 21 -2.5 37t-10.5 34t-26 29.5t-45 15.5l-1 -1q-36 5 -59 -17.5t-20 -59.5z
M18 128q-5 51 27 83t81 26l1 1q34 -5 57 -19.5t33 -36.5t13.5 -42.5t3.5 -46.5v-19l-3 -127h-140l2 77q-31 15 -51.5 43t-23.5 61z" />
    <glyph glyph-name="period" unicode="." horiz-adv-x="289" 
d="M137 142q24 -2 41.5 -16.5t19.5 -31.5t-12.5 -27.5t-38.5 -7.5q-23 2 -41 16.5t-20 31.5t13 27t38 8zM140 166q-37 4 -60.5 -14t-19.5 -48q3 -25 27.5 -45t56.5 -24q37 -4 61 14.5t19 47.5q-2 25 -27 45.5t-57 23.5zM144 189q40 -5 71 -31t35 -59v1q5 -42 -27 -67.5
t-83 -20.5q-40 4 -70.5 30.5t-35.5 59.5q-5 41 27 66.5t83 20.5z" />
    <glyph glyph-name="zero" unicode="0" horiz-adv-x="907" 
d="M482 876v1q150 -39 230.5 -175.5t65.5 -302.5t-114.5 -253t-249.5 -50q-149 39 -229 175t-66 303q14 166 113.5 253.5t249.5 48.5zM466 683q-72 19 -114 -25t-44 -135q-3 -208 124 -242q66 -18 107 36.5t48 130.5q6 76 -24 146.5t-97 88.5zM457 642l-1 1q46 -12 69 -61.5
t23 -108.5q0 -12 -1 -20q-5 -53 -27.5 -94t-58.5 -41q-4 0 -20 4l1 -1q-96 26 -94 201q1 59 21.5 92t56.5 33q11 0 31 -5zM397 929q-134 0 -219.5 -97t-98.5 -255v1q-2 -14 -2 -50q0 -169 87.5 -301t239.5 -171q43 -12 92 -12q135 0 221.5 97t100.5 254v-1q3 26 3 54
q0 167 -88.5 298.5t-241.5 170.5q-50 12 -94 12zM397 970q53 0 103 -14l1 1q167 -43 263.5 -185.5t96.5 -323.5q0 -32 -3 -58v1q-15 -174 -112.5 -281.5t-249.5 -107.5q-47 0 -101 14q-167 43 -262.5 186t-95.5 326q0 32 2 55l-1 -2q15 175 111.5 282t247.5 107zM446 603h1
q-3 0 -10.5 1.5t-10.5 1.5q-17 0 -27 -23t-11 -62q0 -142 64 -160h-2q2 0 6 -0.5t5 -0.5q18 0 30.5 29.5t15.5 66.5q1 8 1 17q0 46 -15.5 84t-46.5 46z" />
    <glyph glyph-name="one" unicode="1" horiz-adv-x="361" 
d="M112 887l142 -1l-16 -801h-141q14 727 15 802zM284 927l-200 1q-1 -55 -3.5 -195t-4.5 -229v1q-7 -385 -9 -460q96 -2 199 -2zM56 970l258 -1l-20 -967q-209 0 -257 1q3 137 10 503q3 128 9 464z" />
    <glyph glyph-name="two" unicode="2" horiz-adv-x="898" 
d="M437 670v2h-145h-162l6 218q33 0 92 -0.5t76 -0.5q68 0 130 -12.5t121.5 -40t102 -80t58.5 -123.5q5 -32 7 -65.5t-10.5 -65.5t-33.5 -57.5t-60.5 -41t-92.5 -15.5h-121q-19 0 -32 -6t-19.5 -16t-10 -23.5t-3.5 -29v-31.5v-31q72 -1 430 -1l-5 -167q-1 0 -611 -3l4 148
q3 129 19 186q43 150 201 150h90q59 0 69 34q9 29 -25 52q-29 20 -75 20zM437 631l-40 -3q31 0 55 -3t35 -7.5t11 -9.5q0 -2 -30 -2l-90 -1q-52 0 -93.5 -13t-68 -34.5t-45.5 -52t-29 -62.5t-15 -69t-6.5 -68t-2.5 -63v-14l-5 -191q204 2 347 2q102 1 344 1l8 250h-311h-121
q0 56 25 56h121q125 -1 181.5 64t56.5 161q0 36 -8 71v-1q-14 65 -48.5 116t-79 82.5t-101 52.5t-111 29t-112.5 8h-67q-16 0 -69.5 0.5t-71.5 0.5l-7 -300h348zM78 230q4 142 19 205q25 102 89 154h-138l9 384q18 0 91 -0.5t89 -0.5h67q80 0 153.5 -15.5t144 -50.5
t121.5 -100t71 -155v2q10 -43 10 -81q0 -79 -33 -143t-103 -96h184l-9 -332q-51 -1 -191.5 -2t-191.5 -1q-184 0 -388 -2zM404 589q-4 -1 -13 -1l46 1h-33z" />
    <glyph glyph-name="three" unicode="3" horiz-adv-x="762" 
d="M355 299h1q70 0 89 33q17 28 -20 51q-30 19 -86 22q-1 0 -6 -0.5t-8 -0.5l5 165q39 -2 66 0q72 0 86 35q12 27 -24 49q-31 19 -81 19h-146h-93l7 215q39 -1 159 -1q52 0 101 -12.5t97 -39.5t84 -78.5t51 -122.5q11 -54 -14 -107t-79 -75q38 -28 63 -75.5t29 -95.5
q9 -107 -47.5 -151t-171.5 -44q-23 0 -139.5 -0.5t-154.5 -0.5l4 215h110h118zM356 341h-267l-6 -299q145 0 209 1q30 0 73.5 0.5t51.5 0.5q126 0 192 48t66 162v30q-8 87 -65 160q68 62 68 156q0 28 -3 42q-17 80 -57.5 138.5t-94 89t-107.5 44.5t-112 14q-157 0 -196 1
l-10 -298h279q69 0 69 -16q0 -5 -53 -5q-9 -1 -27 -1q-25 0 -73 4l-8 -251q1 0 25 0.5t25 0.5h4q73 -3 73 -16q0 -6 -56 -6zM50 382h198l5 207h-195l12 382q21 0 122 -1t112 -1q50 0 97.5 -9t98 -32t91 -57.5t73 -91t48.5 -127.5q5 -33 5 -52q0 -88 -56 -160q45 -71 52 -152
q1 -9 1 -34q0 -137 -76 -194.5t-221 -57.5h-125q-71 -1 -247 -1z" />
    <glyph glyph-name="four" unicode="4" horiz-adv-x="978" 
d="M135 386l128 503l200 -1l-77 -303l188 1l78 303l200 -1l-205 -805q-133 0 -201 1l78 303zM232 931l-149 -587q55 0 190.5 1t198.5 1l-78 -303q136 -2 284 -2l226 889l-283 1q-4 -15 -33.5 -131t-44.5 -172q-36 0 -106 -2l79 304zM30 303l169 669l370 -1l-77 -302h19
q12 50 39.5 156.5t37.5 146.5l370 -1l-249 -971q-33 0 -183 1t-184 1l77 302q-68 0 -205.5 -0.5t-183.5 -0.5z" />
    <glyph glyph-name="five" unicode="5" horiz-adv-x="1037" 
d="M488 302q81 0 107 36q19 27 -13 49q-30 19 -86 19l-44 1q-57 0 -100 19t-67 50t-36 70t-11.5 78.5t10.5 76.5l47 187q461 0 599 -2l-56 -203h-409q-11 -42 4.5 -75.5t62.5 -33.5l51 -1q67 1 118 -20.5t79.5 -56.5t42 -74.5t13.5 -80.5q0 -71 -32 -122.5t-86.5 -79
t-115.5 -40t-130 -12.5q-39 0 -156.5 -1t-149.5 -1l56 217h187h115zM488 343h-333l-78 -299h95q91 0 140 1q48 1 124 1q77 0 144.5 14.5t128.5 46t96.5 91.5t35.5 143q0 49 -16 95t-48.5 87.5t-92 66.5t-137.5 24l-51 1q-26 0 -30 27h404l78 285q-166 2 -534 2h-151
l-56 -218q-10 -42 -10 -87q0 -50 13.5 -94t42 -82t80 -60t119.5 -22l44 -1q64 0 64 -9q0 -13 -72 -13zM24 2l98 383h134q-101 80 -101 239q0 48 13 97l62 250h184q339 0 588 -3l-100 -368h-148q65 -44 96.5 -114.5t31.5 -144.5q0 -76 -26.5 -135.5t-69.5 -97t-102.5 -61.5
t-120 -33.5t-127.5 -9.5q-76 0 -123 -1q-49 -1 -141 -1h-148z" />
    <glyph glyph-name="six" unicode="6" horiz-adv-x="890" 
d="M432 607v1q141 -18 230 -104t95 -197q7 -111 -73.5 -174t-220.5 -47q-92 11 -166.5 75t-114 151t-46.5 180q-4 68 1 123t22.5 107t48.5 87t83.5 56t123.5 21q106 0 127 -2l70 -193q-29 1 -84.5 1h-83.5q-41 1 -70 -22.5t-42 -61.5q48 5 100 -1zM472 433q-58 8 -86 -10
t-26 -57q2 -44 31.5 -67.5t89.5 -31.5q54 -8 82 14.5t27 54.5q-2 31 -32.5 60t-85.5 37zM466 391h1q39 -5 60.5 -22t22.5 -36q1 -10 -11 -18t-35 -8q-2 0 -8.5 0.5t-10.5 0.5h1q-44 7 -64.5 21t-21.5 40q-2 25 40 25q8 0 26 -3zM430 649q8 2 13 2q32 -1 96 -1h131l-99 273
q-43 5 -92 5h-64q-91 0 -155.5 -29t-99.5 -82.5t-50 -118.5t-15 -149q0 -21 2 -59q7 -100 52 -195t127 -165.5t182 -84.5q24 -4 57 -4q135 0 211 75.5t71 192.5q-10 125 -108.5 223t-251.5 117l-1 -1q-5 0 -6 1zM727 609h-65q78 -55 124 -133t51 -164q8 -139 -78.5 -225.5
t-243.5 -86.5q-33 0 -62 4h1q-112 13 -202.5 89.5t-138.5 180t-56 213.5q-2 40 -2 62q0 92 17 164t56.5 132t111.5 92t175 32h64q41 0 120 -9z" />
    <glyph glyph-name="seven" unicode="7" horiz-adv-x="753" 
d="M120 693l4 199q105 -1 276 -1.5t229 -0.5l-22 -805h-189l16 606zM86 933l-6 -281q47 -1 156 -1.5t158 -0.5l-16 -605q126 -2 267 -2l23 889h-240q-231 0 -342 1zM40 611l9 364q57 0 194.5 -0.5t184.5 -0.5q32 0 138 -0.5t142 -0.5l-26 -971q-280 0 -344 1l17 605
q-312 3 -315 3z" />
    <glyph glyph-name="eight" unicode="8" horiz-adv-x="860" 
d="M269 530v2q-108 55 -128 144q-12 54 6 97.5t56.5 68.5t84.5 38t94 13q47 0 93.5 -10.5t91 -32t77.5 -61t44 -91.5q27 -118 -117 -177q125 -61 150 -171q14 -64 -5 -117t-60.5 -85t-95.5 -49.5t-113 -17.5q-108 -1 -201 54.5t-117 162.5q-19 86 22 147t118 85zM329 667
q7 -30 32.5 -46t58.5 -16q37 0 63 22t18 56q-6 30 -32.5 46.5t-59.5 16.5q-38 0 -62.5 -22t-17.5 -57zM318 303q8 -36 39 -55.5t71 -19.5q57 0 88 35t24.5 79t-46.5 70q-30 21 -73 21q-58 0 -86.5 -38.5t-16.5 -91.5zM368 676q-3 13 10 21t31 8t33.5 -9t19.5 -23
q0 -11 -13 -18.5t-29 -7.5q-45 0 -52 29zM357 312v1q-2 8 -2 19q0 26 17.5 42.5t48.5 16.5t52 -14q28 -19 28 -49q0 -24 -19.5 -41t-53.5 -17q-27 0 -47 11t-24 31zM84 348q0 -35 6 -60v1q18 -84 77.5 -142.5t131.5 -83.5t148 -24q127 1 223.5 69.5t96.5 188.5q0 26 -7 63
q-23 95 -107 160q79 56 79 143q0 18 -5 43q-14 61 -51 107t-87.5 71.5t-102 37.5t-104.5 12q-69 0 -131.5 -21.5t-108.5 -72.5t-46 -123q0 -25 6 -50q17 -77 85 -131q-103 -68 -103 -188zM44 348q0 113 80 191q-47 52 -61 118q-6 30 -6 60q0 65 30 116.5t78.5 81.5t104 45.5
t112.5 15.5q58 0 115.5 -14t113.5 -43t97.5 -81.5t56.5 -122.5q6 -30 6 -52q0 -83 -54 -144q60 -60 81 -150q8 -40 8 -72q0 -94 -54 -164t-134 -102.5t-170 -32.5q-83 -1 -162 28t-145 95t-89 158q-8 33 -8 69zM395 323v-1q3 -11 33 -11q16 0 25 5t9 12t-11 13q-12 9 -30 9
q-27 0 -27 -18q0 -6 1 -9z" />
    <glyph glyph-name="nine" unicode="9" horiz-adv-x="888" 
d="M451 364h1q-140 17 -228.5 103t-97.5 198q-6 111 74.5 174.5t220.5 46.5q145 -18 230.5 -102.5t93.5 -218.5q5 -53 0.5 -109.5t-13 -109.5t-30.5 -100.5t-51.5 -83t-76.5 -56.5t-106 -21q-106 0 -128 2l-70 192h168q42 -1 71 22t40 62q-47 -5 -98 1zM439 527
q70 -10 104 11.5t32 68.5q-4 54 -39 82.5t-108 38.5q-66 9 -100 -18.5t-32 -65.5t39 -73t104 -44zM444 568h1q-52 7 -80 30.5t-29 48.5q-1 16 16 28.5t48 12.5q12 0 22 -1q57 -8 83.5 -27.5t29.5 -55.5q0 -38 -57 -38q-20 0 -34 2zM445 323h1h1q2 -1 6 -1q-8 -2 -14 -2
q-32 1 -95 1h-132l100 -273q43 -5 91 -5h65q73 0 129.5 27.5t91.5 71.5t57.5 106t31 124.5t8.5 132.5q0 11 -0.5 31.5t-0.5 29.5q-9 148 -105.5 243.5t-253.5 117.5q-24 4 -59 4q-136 0 -211.5 -75t-69.5 -194q9 -127 107 -223.5t252 -115.5zM283 11l-128 351h68
q-78 54 -124 131.5t-52 165.5q-8 138 78 225.5t242 87.5q35 0 64 -4h-1q177 -22 281 -126.5t113 -272.5q2 -40 2 -64q0 -77 -10 -145t-35 -135t-64.5 -115.5t-103 -78t-145.5 -29.5h-65q-41 0 -120 9zM449 609h-1q18 -2 30 -2t18 -3q-6 32 -80 42q-5 1 -16 1t-25 2v-1
q3 -12 22.5 -23.5t51.5 -15.5z" />
    <glyph glyph-name="colon" unicode=":" horiz-adv-x="358" 
d="M160 633q31 -4 54.5 -30t25.5 -58q3 -32 -16.5 -51t-50.5 -14q-30 4 -53.5 30t-26.5 57q-2 32 17.5 51.5t49.5 14.5zM168 392q31 -5 54.5 -30.5t26.5 -57.5q2 -31 -17.5 -50.5t-50.5 -15.5q-31 5 -54 31t-25 58q-3 31 16.5 50.5t49.5 14.5zM164 670q-45 7 -74 -24
t-26 -82q5 -44 35.5 -79t70.5 -42q45 -7 74 23.5t25 81.5q-3 44 -34 79.5t-71 42.5zM172 428q-46 7 -74.5 -23.5t-24.5 -81.5q3 -43 33.5 -78.5t71.5 -42.5q45 -7 74 24t25 82q-3 44 -34 79t-71 41zM167 706h1q50 -8 88 -53t42 -101q6 -85 -49 -126q51 -46 57 -115
q5 -69 -33 -111.5t-99 -33.5q-50 8 -87.5 53t-41.5 101q-8 84 47 125q-51 49 -57 114q-5 70 33.5 112.5t98.5 34.5z" />
    <glyph glyph-name="semicolon" unicode=";" horiz-adv-x="392" 
d="M176 663q31 -4 54 -31.5t25 -61.5q3 -34 -16.5 -54t-50.5 -15q-30 5 -53 32t-26 61q-2 34 17 54t50 15zM183 404q30 -5 48.5 -23t24 -41.5t8 -50t-0.5 -47.5l-1 -107h-48l3 106h-20q-31 5 -54 32.5t-26 61.5t16.5 54t49.5 15zM179 702q-46 7 -74.5 -25.5t-24.5 -86.5
q4 -45 35 -82t70 -45q45 -7 74 26t25 86v-2q-3 47 -34 85t-71 44zM187 443q-45 8 -74 -25t-25 -88v1q4 -44 32 -80.5t67 -46.5l-2 -107h105l2 144q0 5 0.5 15.5t0.5 15.5q0 31 -3.5 55t-14 50t-32.5 43t-56 23zM183 740h-1q50 -8 88.5 -55.5t42.5 -107.5l-1 3
q8 -88 -45 -134q54 -48 54 -174v-31l-3 -183h-162l2 117q-39 19 -66.5 61.5t-31.5 90.5v-1q-8 93 50 137q-52 48 -58 124q-5 74 33 118.5t98 34.5z" />
    <glyph glyph-name="question" unicode="?" horiz-adv-x="734" 
d="M377 720h-118h-131l5 188q100 -2 136 -2q55 0 105.5 -10.5t98.5 -34t82.5 -68.5t47.5 -106q10 -34 5 -71t-19.5 -68t-51 -51t-89.5 -20h-97q-22 0 -34.5 -12.5t-16 -37.5t-4 -44t2.5 -52.5t3 -43.5h-152l2 54q2 122 19 174q37 115 158 115l73 1q49 0 56 30q5 27 -26 46
q-23 13 -55 13zM237 219v3q40 -5 71 -34.5t34 -66.5q4 -35 -22.5 -57.5t-66.5 -18.5q-40 5 -69.5 33.5t-34.5 65.5q-4 37 21.5 58.5t66.5 16.5zM89 678h288q41 0 43 -10q-2 5 -18 5l-73 -1q-50 0 -87.5 -14.5t-60 -41t-36.5 -57t-20 -69t-8 -69.5t-3 -66v-3.5v-3.5v-3.5
v-3.5l-2 -96h46q-56 -35 -47 -107q6 -49 46 -88t92 -47q59 -7 97.5 30t33.5 93q-4 34 -33 66.5t-72 52.5h65q0 54 -2 80q-3 30 -3 60q0 50 16 50h97q104 -1 151 56.5t47 143.5q0 39 -6 62v-1q-15 71 -53.5 122.5t-92 78.5t-109 39t-116.5 12q-21 0 -174 3zM76 342
q3 131 16 187q16 66 50 108h-92l9 356q150 -3 210 -3q66 0 127 -14t120 -44.5t101.5 -88.5t59.5 -138v2q7 -34 7 -72q0 -48 -12 -89.5t-38.5 -77t-74 -56t-111.5 -19.5h-91q16 -1 16 -8q0 -27 3 -57q1 -6 1.5 -56.5t0.5 -61.5q36 -40 40 -80q5 -77 -45.5 -127t-127.5 -42
q-64 8 -114 58t-58 114q-3 39 6 71h-5z" />
    <glyph glyph-name="A" unicode="A" horiz-adv-x="824" 
d="M305 80l-228 3q64 219 239 806h134l375 -808q-38 0 -113 -0.5t-114 -0.5l-178 384zM23 42l312 -5q13 42 28.5 94t35 117.5t29.5 100.5l144 -311q102 0 140 1q19 0 88.5 0.5t88.5 0.5l-414 890h-189q-22 -74 -48 -158q-198 -672 -215 -730zM365 -4l-397 5q9 29 231 783
q28 98 56 188h247l453 -974h-242q-43 -1 -167 -1l-109 236q-14 -45 -38 -125.5t-34 -111.5z" />
    <glyph glyph-name="B" unicode="B" horiz-adv-x="862" 
d="M135 884l1 1l193 -1q132 0 216 -49t107 -149q16 -71 -16 -125t-95 -68q68 -20 120 -75.5t68 -124.5q19 -87 -26.5 -148.5t-128.5 -61.5q-2 0 -230 -0.5t-229 0.5q19 732 20 801zM308 250h60q85 0 116 19.5t30 52.5q-2 36 -21.5 61t-51 37t-62.5 17t-66 5zM388 729h-62
l-4 -120h82q46 5 47 45q2 25 -18 49.5t-45 25.5zM411 655q0 -2 -8 -4h-40q0 28 1 36h23q10 -1 17.5 -11t6.5 -21zM368 292h-20q0 20 2 55t2 52q119 -10 122 -78q0 -29 -106 -29zM136 927l-41 -1q-2 -176 -6 -308q-9 -351 -14 -577h499q89 0 144.5 57.5t55.5 146.5
q0 29 -6 56q-30 125 -135 193q63 58 63 148q0 25 -5 53q-25 116 -120 173t-242 58zM58 969l78 -1l193 -1q161 0 266 -64.5t134 -197.5q7 -40 7 -63q0 -81 -43 -143q89 -79 113 -188q8 -37 8 -66q0 -106 -66.5 -175.5t-173.5 -69.5h-541q6 236 16 620q3 117 9 349zM391 351
q0 -3 -0.5 -9t-0.5 -9q38 -1 43 -8q-9 17 -42 26z" />
    <glyph glyph-name="C" unicode="C" horiz-adv-x="832" 
d="M667 307l-4 -224q-46 1 -134 1q-109 0 -209.5 78.5t-158 194t-54.5 225.5q3 76 25.5 131.5t60 87t87.5 51.5t106.5 25t118 8t121.5 -1q13 0 20 -0.5t17.5 -0.5h19.5l-6 -222h-220q-159 0 -163 -134q-3 -76 55 -148t131 -72h187zM701 41l6 307h-227q-57 1 -103 59t-44 118
q4 95 124 95h258l8 304q-6 0 -44 0.5t-52 0.5q-60 2 -94 2q-80 0 -138 -6t-122 -26.5t-105 -56.5t-69 -100.5t-31 -154.5q-3 -89 34.5 -186t100 -175t150 -129t176.5 -51q22 0 85.5 -0.5t86.5 -0.5zM747 390l-7 -392q-138 3 -211 3q-97 0 -192 55t-162.5 139t-108.5 188.5
t-38 200.5q3 72 19 129.5t41.5 97.5t64.5 69t79 45.5t93.5 26.5t100.5 13t107 3q34 0 96 -2h134l-9 -388h-297q-83 0 -84 -54q-2 -46 31.5 -89.5t75.5 -44.5h267z" />
    <glyph glyph-name="D" unicode="D" horiz-adv-x="932" 
d="M348 663l-9 -355h108q72 4 113 33t43 102q3 76 -56.5 148t-133.5 72h-65zM295 84v1q-106 0 -158 1q6 276 11.5 514.5t6.5 287.5q73 0 207 -2q84 0 166 -46.5t141 -118.5t94 -161.5t32 -171.5q-2 -63 -19.5 -111.5t-42 -80.5t-66 -54.5t-78.5 -34t-94 -17t-97 -6.5t-103 0
zM381 350l6 272h26q59 -1 105.5 -58.5t44.5 -119.5q-1 -51 -32 -71t-85 -23h-65zM295 43l-97 -1h145q59 0 103.5 2.5t97.5 10.5t91.5 22.5t77 40.5t63.5 61.5t41 88t19 118.5q4 121 -61 246.5t-178 210.5t-235 85h1q-136 2 -247 2q-1 -46 -3 -150.5t-3 -131.5
q-3 -79 -14 -602q156 -3 199 -3zM100 1l195 1q-84 0 -240 3q2 105 5.5 251t5.5 243t3 151l2.5 100t3 128t2.5 93q150 0 286 -2h-1q100 0 197 -54.5t167 -139t111.5 -189t38.5 -201.5q-3 -74 -21 -132.5t-44.5 -98t-68 -68.5t-83 -45t-99 -25.5t-105.5 -12t-112 -2.5h-243z
M523 445q1 43 -28 84t-69 50l-4 -188h24q75 8 77 54z" />
    <glyph glyph-name="E" unicode="E" horiz-adv-x="752" 
d="M142 885h501l-5 -195l-311 -1l-3 -100h212l-4 -197h-213l-3 -111l311 1l-5 -197q-327 -2 -499 0q6 240 11.5 474t7.5 326zM682 927h-577q-3 -110 -4 -165q-6 -217 -17 -719q126 -1 420 -1l158 -3l4 284q-48 0 -153.5 -0.5t-157.5 -0.5q0 8 0.5 17t0.5 12h214l5 280h-211
v16l312 1zM67 968h655l-8 -361l-102 -1l-3 -241h97l-9 -367l-193 3q-64 0 -230.5 0.5t-229.5 0.5q12 532 18 761q1 30 5 205z" />
    <glyph glyph-name="F" unicode="F" 
d="M151 888q0 -1 251 0h252l-6 -196l-312 -1l-2 -100h212l-3 -198h-214l-10 -310q-125 0 -189 1q8 283 14 532.5t7 271.5zM693 930h-580q-1 -15 -2 -66t-1 -67q0 -9 -6 -263t-13 -491q128 -2 265 -2q2 48 5.5 156.5t5.5 154.5h213l6 281h-213v16l313 1zM76 971h657l-9 -362
l-101 -1l-4 -298h-215q-2 -56 -5.5 -166t-4.5 -144q-215 0 -343 2q4 175 8.5 335.5t8 288t4.5 173.5q0 52 4 172z" />
    <glyph glyph-name="G" unicode="G" horiz-adv-x="879" 
d="M765 432l-9 -348h-228q-104 0 -203 73.5t-160 180t-71 209.5q-1 4 -1 37q3 76 26.5 131.5t62 87t89.5 52t109.5 25.5t121.5 8t125 -1q13 0 20.5 -0.5t18.5 -0.5h20l-6 -223h-236q-75 -4 -115.5 -33.5t-43.5 -100.5q-2 -77 58 -149t135 -72h86l3 125zM796 42l10 431
l-279 1q0 -13 -0.5 -34t-1.5 -49t-1 -42h-46q-59 1 -106.5 59t-45.5 119q1 50 41.5 71.5t116.5 24.5q0 -1 45 -1h190l8 305q-5 0 -44 0.5t-54 0.5q-62 2 -97 2q-82 0 -142 -6t-126 -26.5t-108 -57t-71.5 -101t-32.5 -154.5q0 -35 3 -47q12 -111 78.5 -224.5t174 -192
t220.5 -79.5h268zM848 515l-13 -514h-308q-93 0 -185.5 51t-160.5 129t-113.5 173.5t-53.5 184.5l1 -7q-3 42 -3 53q3 84 24 148.5t59.5 106t83 68.5t107 40.5t118 18t128.5 4.5q35 0 99 -2h138l-10 -389h-230q-5 0 -5 3q-76 -3 -116.5 -16t-41.5 -41q-2 -47 33 -90.5
t79 -44.5h7q0 53 3 125z" />
    <glyph glyph-name="H" unicode="H" horiz-adv-x="931" 
d="M162 888l198 -1l-8 -304l231 2l7 303l199 -1l-23 -804h-197l7 303l-231 -1l-7 -302h-198q5 191 10 365.5t7.5 266t4.5 173.5zM401 929l-279 1q-1 -31 -4 -176.5t-6 -236.5q-8 -275 -13 -476h278q2 44 4 150t3 152q47 0 151 2l-7 -304h277l25 888l-280 1q-1 -48 -3 -157
t-3 -147h-78.5t-72.5 -1zM84 971l358 -1l-8 -303q6 0 29 0.5t42 0.5q6 295 6 303l360 -1l-27 -970h-357l7 303q-19 -1 -71 -1q-6 -288 -6 -302h-360q3 111 8.5 303t6.5 214q2 71 4.5 156t4.5 173.5t3 124.5z" />
    <glyph glyph-name="I" unicode="I" horiz-adv-x="389" 
d="M128 886l-1 3l179 -1l-17 -807q-94 -2 -178 -2q5 259 10 492t7 315zM98 930l1 -51q-1 -50 -6.5 -307t-11.5 -535q93 0 237 3l17 890h-237zM72 866l-3 106l296 -1l-19 -973q-24 0 -147 -1t-147 -1q6 273 11.5 552t6.5 340z" />
    <glyph glyph-name="J" unicode="J" 
d="M249 83h1l-101 226h55.5h67h57.5q44 0 72.5 31t34.5 79l12 469l189 -1q-1 -35 -0.5 -173t-4.5 -240.5t-18 -168.5q-20 -98 -81 -159t-155 -62q-86 0 -129 -1zM227 42h151q105 1 177 72.5t97 181.5q22 115 22 438q0 131 3 195l-266 1q-5 -195 -13 -505q-5 -31 -23.5 -52.5
t-45.5 -21.5h-241zM378 1l-176 -3l-175 394h302q26 0 31 33q2 65 7 263.5t7 282.5l343 -1q-5 -108 -5 -236q0 -333 -23 -446q-26 -128 -106.5 -207t-204.5 -80z" />
    <glyph glyph-name="K" unicode="K" horiz-adv-x="1010" 
d="M146 888l203 -1l-9 -292l10 2l225 290h279l-310 -399l320 -405h-225l-291 368l-11 6l-11 -374q-133 0 -201 1q8 285 14.5 540.5t6.5 263.5zM391 929l-285 1q-1 -25 -2.5 -88.5t-1.5 -80.5q-2 -90 -19 -718q136 -2 283 -2q1 23 9 309l244 -309h330q-267 339 -353 447
l343 441h-384q-109 -141 -171 -221zM66 971l368 -1l-5 -137q74 96 106 137h488l-373 -482q61 -77 202 -256t183 -232h-435l-188 236q-1 -30 -3 -114.5t-3 -121.5q-231 0 -365 2q5 190 12 441t8 319q1 22 3 105t2 104z" />
    <glyph glyph-name="L" unicode="L" horiz-adv-x="843" 
d="M140 891l195 -1l-16 -605l398 -3q-4 -132 -7 -197l-397 1v-1q-128 0 -194 1q6 238 21 805zM375 931l-274 1q-12 -456 -22 -886q130 -2 234 -2l435 -1q2 34 9 280q-56 0 -194 1.5t-204 2.5zM64 974l351 -1l-15 -605q74 -1 219.5 -2.5t178.5 -1.5q-2 -152 -12 -362h-473
q-144 0 -276 2q15 580 27 970z" />
    <glyph glyph-name="M" unicode="M" horiz-adv-x="1242" 
d="M126 85l22 802h268l189 -372l196 372q51 0 153.5 -0.5t152.5 -0.5l-24 -802q-140 0 -209 1l15 523q-55 -86 -141.5 -255.5t-139.5 -253.5l-165 321q-79 156 -94 186q-10 -354 -16 -522h-163q-8 0 -23 0.5t-21 0.5zM106 928l-24 -885h64q4 0 12 -0.5t12 -0.5h205
q4 105 11 389v7l11 -21q0 1 -2 4q-4 9 1 -1l9 -18l199 -388q98 153 180 318q54 105 57 111l-11 -399q140 -2 295 -2l26 886h-196h-180q-21 -39 -80 -150t-90 -170l-163 320h-336zM38 2l26 968h405l138 -270q70 133 142 270q25 0 103 -0.5t103 -0.5h240l-29 -968
q-35 0 -190 0.5t-190 0.5l7 253q-65 -126 -194 -326l-175 342q-4 -144 -8 -270h-246q-4 0 -12 0.5t-12 0.5h-108z" />
    <glyph glyph-name="N" unicode="N" horiz-adv-x="882" 
d="M105 86l21 801h220q47 -106 201 -438l11 438l225 -1l-23 -801q-145 0 -218 1l-227 476l-13 -477q-131 0 -197 1zM87 928l-23 -882q130 -2 278 -2q1 62 4.5 193.5t4.5 153.5l166 -346q73 -1 283 -1l24 883l-305 1q-5 -160 -8 -305q-96 208 -140 305h-284zM22 4l25 965h350
q17 -36 24.5 -53t8.5 -19.5t11 -24.5t34 -73q1 45 4 170h387l-28 -967q-199 0 -347 2l-105 221q-4 -155 -6 -223q-228 0 -358 2z" />
    <glyph glyph-name="O" unicode="O" horiz-adv-x="716" 
d="M357 877q150 -39 230.5 -175t65.5 -302q-13 -167 -113 -254.5t-250 -49.5q-149 39 -229 175t-66 304q15 166 114 253.5t248 48.5zM342 684q-72 19 -114 -25t-44 -136q-2 -208 124 -242q46 -12 81 13t52.5 66t21.5 89q4 47 -5.5 93.5t-39.5 87.5t-76 54zM333 643l-1 1
q46 -12 69 -61.5t23 -109.5q0 -12 -1 -20q-4 -53 -27 -94t-59 -41q-4 0 -20 4l2 -1q-97 26 -94 201q0 59 20.5 92.5t57.5 33.5q10 0 30 -5zM367 918q-46 12 -93 12q-134 0 -219.5 -97t-99.5 -255v2q-2 -15 -2 -51q0 -166 89 -298.5t239 -174.5q40 -12 92 -12q135 0 221.5 97
t99.5 255v-1q2 34 2 54q0 167 -88 298.5t-241 170.5zM377 958q167 -43 263 -185.5t96 -323.5q0 -24 -2 -58v2q-14 -176 -111.5 -283.5t-249.5 -107.5q-48 0 -102 14q-162 48 -260 192.5t-98 320.5q0 32 3 55l-1 -2q15 175 111.5 282.5t247.5 107.5q47 0 103 -14zM322 604h1
q-3 0 -10 1.5t-10 1.5q-36 0 -38 -85q-2 -143 63 -161h-2q2 0 6 -0.5t5 -0.5q19 0 31 29t15 67q1 8 1 17q0 46 -15.5 84t-46.5 47z" />
    <glyph glyph-name="P" unicode="P" horiz-adv-x="814" 
d="M131 887h1q42 0 126 0.5t126 0.5q108 0 201 -74.5t116 -178.5q23 -105 -37 -179t-168 -74h-184l-7 -297h-193q16 683 19 802zM316 547h151q39 0 61 26.5t14 63.5q-8 38 -41.5 65t-72.5 27q-18 0 -53.5 -0.5t-53.5 -0.5zM467 589h-110q0 18 0.5 48.5t1.5 48.5h15
q8 0 26.5 0.5t27.5 0.5q26 0 48 -17t27 -42q4 -16 -6.5 -27.5t-29.5 -11.5zM258 928h-165q-8 -267 -18 -754q-1 -15 -2.5 -65.5t-1.5 -63.5q128 -2 272 -2q4 125 8 298h145q110 0 180.5 68t70.5 173q0 33 -7 62q-26 118 -130.5 201.5t-225.5 83.5q-21 0 -63 -0.5t-63 -0.5z
M55 970h203q21 0 63 0.5t63 0.5q134 0 249.5 -93.5t144.5 -224.5q9 -45 9 -71q0 -122 -82 -202.5t-209 -80.5h-106q-1 -43 -8 -297q-288 0 -352 1q0 13 2 85.5t3 87.5v-1q13 602 20 795zM398 630h61q-12 16 -31 16q-20 0 -30 -1v-15zM465 618q0 1 -1 2v-1z" />
    <glyph glyph-name="Q" unicode="Q" horiz-adv-x="921" 
d="M493 927q154 -42 236.5 -188.5t67.5 -326.5q-11 -132 -72.5 -221t-159.5 -109q21 -73 79 -115q31 -22 93 -64.5t93 -63.5l-145 -158q-72 49 -110 78t-76 65.5t-54.5 71t-27.5 80t-13 108.5q-96 32 -164 111t-98.5 182t-21.5 216q15 179 117 274.5t256 59.5zM479 711
q-75 21 -118.5 -26.5t-45.5 -146.5q-3 -224 129 -261q47 -13 83 14t53.5 71.5t21.5 95.5q7 81 -24 157.5t-99 95.5zM468 669q47 -14 70.5 -67t23.5 -116v-24q-4 -57 -27.5 -101t-61.5 -44q-3 0 -10 1.5t-10 1.5l1 -1q-101 28 -98 218q1 63 22.5 99.5t58.5 36.5q16 0 31 -4z
M503 970h-2q-43 10 -84 10q-142 0 -232.5 -105t-104.5 -278v1q-2 -15 -2 -53q0 -166 76 -301t211 -191q3 -51 11.5 -90.5t28 -76t40 -63.5t62 -62t80 -63t105.5 -74l203 222q-96 68 -179 123q-19 15 -51 35l2 -1q-28 20 -46 51q91 35 147.5 129.5t69.5 224.5q2 34 2 56
q0 181 -90 322.5t-247 183.5zM510 1013h3q171 -47 269.5 -200.5t98.5 -348.5q0 -34 -3 -60v1q-11 -124 -59.5 -219t-129.5 -147q39 -24 49 -33q147 -100 220 -152l-261 -286q-88 60 -137 96.5t-98 80.5t-73 82t-40.5 86.5t-22.5 109.5q-136 66 -212.5 208.5t-76.5 313.5
q0 34 3 58l-1 -2q15 191 116.5 307t261.5 116q43 0 93 -11zM458 626h-1q-11 3 -20 3q-18 0 -28.5 -25t-12.5 -68q0 -155 68 -174h-3q3 0 7 -0.5t5 -0.5q19 0 32 32t16 73q1 9 1 20q0 49 -16 89.5t-48 50.5z" />
    <glyph glyph-name="R" unicode="R" horiz-adv-x="836" 
d="M144 888h1h253q108 0 201.5 -74t116.5 -179q18 -84 -19.5 -151t-112.5 -91l140 -308h-184l-135 297h-79l-8 -297h-193q16 685 19 803zM330 547h151q39 0 60.5 26.5t13.5 63.5q-8 38 -41.5 65t-71.5 27h-107zM481 589h-111q1 25 2.5 55t1.5 43h68q26 0 47.5 -17t26.5 -42
q4 -16 -6.5 -27.5t-28.5 -11.5zM398 929h-293q-2 -78 -6.5 -277.5t-7.5 -343.5q-3 -99 -7 -263q128 -2 272 -2q4 125 8 298h16l135 -298q147 0 271 2q-123 272 -148 326q57 32 90 87.5t33 123.5q0 33 -7 62q-25 118 -129.5 201.5t-226.5 83.5zM67 971h331q134 0 250 -93
t144 -225q9 -37 9 -71q0 -71 -29.5 -130t-82.5 -97q154 -339 160 -351q-124 -2 -359 -2l-89 197q-4 -101 -6 -197q-287 0 -351 1q6 273 7 305q15 621 16 663zM411 630h62q-12 16 -31 16h-31v-16zM478 618v2v-2z" />
    <glyph glyph-name="S" unicode="S" horiz-adv-x="838" 
d="M423 302h1q77 0 94 34q14 28 -21 50q-33 20 -90 20l-42 1q-67 -1 -148 61t-101 155q-9 39 -9.5 72t5.5 58t19.5 45.5t30.5 34.5t40.5 24.5t47 16.5t53.5 10t57 5t59 1q136 0 268 -3l-6 -218h-329q-57 0 -66 -32q-8 -28 25 -47q25 -15 60 -15l49 -1q65 0 119.5 -21
t89.5 -56.5t57 -75t31 -80.5q15 -59 2 -102.5t-39.5 -73t-70 -47t-89.5 -25t-99 -7.5q-38 0 -151.5 -0.5t-143.5 -0.5l4 217h182h111zM424 343h-333l-6 -300q13 0 80.5 0.5t97.5 0.5q59 1 158 1q68 0 125.5 12t108.5 37.5t80 73.5t29 114q0 32 -8 69v-1q-10 47 -35 92
t-65 85t-101 64.5t-135 23.5l-49 1q-47 0 -47 13q0 -1 28 -1h368l8 300q-132 3 -309 3q-59 0 -104.5 -4t-94.5 -18.5t-81 -38.5t-52.5 -67t-20.5 -102q0 -46 11 -87q17 -71 70 -130.5t112 -89t106 -28.5l42 -1q75 0 75 -15q0 -7 -58 -7zM46 2l5 383h146q-130 85 -159 219
q-11 58 -11 97q0 70 23 120.5t58 79.5t89.5 45.5t105 21.5t116.5 5q45 0 109.5 -0.5t139 -2t101.5 -1.5l-10 -383h-115q114 -84 150 -226q10 -45 10 -78q0 -77 -32.5 -133.5t-89 -87t-121.5 -44.5t-140 -14q-99 0 -158 -1h-217z" />
    <glyph glyph-name="T" unicode="T" horiz-adv-x="838" 
d="M80 681l4 207q116 0 346 1t345 1q0 -38 -2.5 -110.5t-2.5 -97.5h-222l-16 -599q-133 0 -202 1l17 598zM44 930l-5 -290h266l-16 -597q138 -2 283 -2q11 410 15 599h222q1 11 2 52t1 52q3 72 3 188q-116 -1 -386 -1q-57 0 -192 -0.5t-193 -0.5zM-3 598l7 373q57 0 212 0.5
t213 0.5q195 0 427 2q0 -85 -3 -232q-1 -10 -3 -71.5t-2 -71.5h-221q-9 -360 -15 -599q-226 0 -364 2l16 597q-48 0 -142 -0.5t-125 -0.5z" />
    <glyph glyph-name="U" unicode="U" horiz-adv-x="892" 
d="M400 104q-120 32 -201 130t-82 221l13 434l196 -1l-12 -458q-3 -119 107 -148q140 -37 146 138l12 469l198 -1l-15 -539q-6 -170 -99.5 -228.5t-262.5 -16.5zM390 65l-30 5q112 -26 170 -26q262 0 272 303l16 582l-278 1q-2 -82 -6.5 -261.5t-6.5 -247.5
q-4 -104 -61 -104q-13 0 -35 5q-79 21 -77 107l13 500l-277 1l-13 -475q2 -137 91 -246t222 -144zM530 2q-45 0 -152 23q-145 39 -242 159.5t-99 271.5l15 515h357l-15 -544q0 -53 47 -65h-1q20 -4 26 -4q18 0 21 65q1 59 6.5 260t7.5 288h359l-18 -625q-12 -344 -312 -344z
M320 38l54 -12q-8 1 -17 3t-20 5t-17 4z" />
    <glyph glyph-name="V" unicode="V" horiz-adv-x="931" 
d="M609 887l228 -1q-6 -22 -240 -801h-133l-373 804q38 -1 109.5 -1h108.5l187 -392zM892 928h-313q-52 -181 -93 -316l-150 317h-135q-63 0 -174 3l412 -888h189q20 69 142 476q53 170 122 408zM548 970l399 -1q-21 -71 -137 -461q-24 -80 -85 -285t-66 -221h-247l-451 973
q152 -4 240 -4h160l116 -244q14 50 40 137.5t31 105.5z" />
    <glyph glyph-name="W" unicode="W" horiz-adv-x="1442" 
d="M1084 886l242 -1l-255 -799h-142l-171 345l-110 -345h-142l-397 801h232l203 -406l163 405l234 -405zM1385 926l-332 1q-65 -184 -121 -344l-232 401q-21 -51 -77.5 -190.5t-83.5 -206.5l-171 342h-327l438 -884h201q41 132 87 272l135 -272h201zM1021 969l423 -1
l-308 -965h-262l-98 198q-5 -15 -29 -90t-35 -108h-262l-479 967h425l139 -278q39 97 158 391l228 -395q64 179 100 281z" />
    <glyph glyph-name="X" unicode="X" horiz-adv-x="1042" 
d="M629 889h261l-267 -420l242 -386h-212q-59 92 -136 219l-139 -219h-261q44 69 135.5 213.5t134.5 211.5q-30 48 -114 183.5t-122 197.5h211l132 -212q131 206 135 212zM966 931h-359q-39 -59 -72 -114v1q-7 -12 -22 -34.5t-19 -29.5l-110 177h-307q93 -153 234 -378
q5 -7 14 -22.5t14 -22.5q-111 -172 -120 -187q-98 -156 -178 -280h359q14 22 54 85.5t62 96.5q24 -40 59 -95t55 -87h309q-39 63 -134 215t-133 213zM584 972h457l-320 -503q220 -352 293 -469h-407q-82 131 -91 146q-18 -28 -49 -77.5t-43 -68.5h-459q117 180 220 343h-1
q24 39 57 89.5t49 75.5l-15 24q-130 208 -273 440h407l86 -141q1 1 5 9l-1 -1q72 114 85 133z" />
    <glyph glyph-name="Y" unicode="Y" horiz-adv-x="1069" 
d="M415 85l9 326l-286 480h231l157 -262l145 262h256l-300 -505l-8 -301h-204zM383 400l-10 -356h287q2 106 9 330l331 558h-354q-19 -34 -60.5 -109t-60.5 -110l-133 219h-328q102 -171 319 -532zM330 2l11 387q-35 58 -166 277.5t-183 306.5h424l107 -178q20 35 54.5 97.5
t44.5 80.5h451l-363 -611q-1 -41 -4.5 -174.5t-5.5 -185.5h-370z" />
    <glyph glyph-name="Z" unicode="Z" horiz-adv-x="915" 
d="M127 691l6 197q121 -1 330 -2t312 -1l-1 -184l-380 -420q31 0 178 -0.5t236 -0.5l-3 -99t-2 -97l-689 2l2 196l384 409h-373zM93 929l-8 -279q54 0 157.5 -0.5t162.5 -0.5l-329 -350l-4 -254l771 -3l3 135q0 17 2 72.5t2 72.5q-48 0 -160.5 0.5t-152.5 0.5h-50l327 361
l2 243q-40 0 -169.5 0.5t-173.5 0.5q-110 1 -380 1zM44 609l10 363q55 0 208.5 -1t211.5 -2q50 0 197 -0.5t185 -0.5l-1 -300l-276 -304q47 0 160 -0.5t152 -0.5q-1 -17 -3 -93.5t-2 -93.5l-5 -175l-849 2l4 312l274 293q-50 0 -142 0.5t-124 0.5z" />
    <glyph glyph-name="a" unicode="a" horiz-adv-x="849" 
d="M290 80l-227 3q45 155 122.5 415t115.5 391h134l376 -808q-39 0 -114 -0.5t-113 -0.5l-178 384zM7 42l313 -5q42 139 94 312l143 -311q102 0 141 1q18 0 87.5 0.5t89.5 0.5l-415 890h-189q-189 -639 -207 -700q-16 -49 -57 -188zM351 -4l-398 5q6 20 20.5 69.5
t30.5 103.5t20 68q27 90 102 345t114 385h248l452 -974h-242q-43 -1 -167 -1l-109 236q-11 -36 -35.5 -118t-35.5 -119z" />
    <glyph glyph-name="b" unicode="b" horiz-adv-x="842" 
d="M135 884l1 1l193 -1q132 0 216 -49t107 -149q16 -71 -16 -125t-95 -68q68 -20 120 -75.5t68 -124.5q19 -87 -26.5 -148.5t-128.5 -61.5q-2 0 -230 -0.5t-229 0.5q19 732 20 801zM308 250h60q85 0 116 19.5t30 52.5q-2 36 -21.5 61t-51 37t-62.5 17t-66 5zM388 729h-62
l-4 -120h82q46 5 47 45q2 25 -18 49.5t-45 25.5zM411 655q0 -2 -8 -4h-40q0 28 1 36h23q10 -1 17.5 -11t6.5 -21zM368 292h-20q0 20 2 55t2 52q119 -10 122 -78q0 -29 -106 -29zM136 927l-41 -1q-2 -176 -6 -308q-9 -351 -14 -577h499q89 0 144.5 57.5t55.5 146.5
q0 29 -6 56q-30 125 -135 193q63 58 63 148q0 25 -5 53q-25 116 -120 173t-242 58zM58 969l78 -1l193 -1q161 0 266 -64.5t134 -197.5q7 -40 7 -63q0 -81 -43 -143q89 -79 113 -188q8 -37 8 -66q0 -106 -66.5 -175.5t-173.5 -69.5h-541q6 236 16 620q3 117 9 349zM391 351
q0 -3 -0.5 -9t-0.5 -9q38 -1 43 -8q-9 17 -42 26z" />
    <glyph glyph-name="c" unicode="c" horiz-adv-x="779" 
d="M651 307l-4 -224q-46 1 -134 1q-109 0 -209.5 78.5t-158 194t-54.5 225.5q3 76 25.5 131.5t60 87t87.5 51.5t106.5 25t118 8t121.5 -1q13 0 20 -0.5t17.5 -0.5h19.5l-6 -222h-220q-159 0 -163 -134q-3 -76 55 -148t131 -72h187zM685 41l6 307h-227q-57 1 -103 59t-44 118
q4 95 124 95h258l8 304q-6 0 -44 0.5t-52 0.5q-60 2 -94 2q-80 0 -138 -6t-122 -26.5t-105 -56.5t-69 -100.5t-31 -154.5q-3 -89 34.5 -186t100 -175t150 -129t176.5 -51q22 0 85.5 -0.5t86.5 -0.5zM731 390l-7 -392q-138 3 -211 3q-97 0 -192 55t-162.5 139t-108.5 188.5
t-38 200.5q3 72 19 129.5t41.5 97.5t64.5 69t79 45.5t93.5 26.5t100.5 13t107 3q34 0 96 -2h134l-9 -388h-297q-83 0 -84 -54q-2 -46 31.5 -89.5t75.5 -44.5h267z" />
    <glyph glyph-name="d" unicode="d" horiz-adv-x="875" 
d="M328 663l-9 -355h108q72 4 113 33t43 102q3 76 -56.5 148t-133.5 72h-65zM275 84v1q-106 0 -158 1q6 276 11.5 514.5t6.5 287.5q73 0 207 -2q84 0 166 -46.5t141 -118.5t94 -161.5t32 -171.5q-2 -63 -19.5 -111.5t-42 -80.5t-66 -54.5t-78.5 -34t-94 -17t-97 -6.5t-103 0
zM361 350l6 272h26q59 -1 105.5 -58.5t44.5 -119.5q-1 -51 -32 -71t-85 -23h-65zM275 43l-97 -1h145q59 0 103.5 2.5t97.5 10.5t91.5 22.5t77 40.5t63.5 61.5t41 88t19 118.5q4 121 -61 246.5t-178 210.5t-235 85h1q-136 2 -247 2q-1 -46 -3 -150.5t-3 -131.5
q-3 -79 -14 -602q156 -3 199 -3zM80 1l195 1q-84 0 -240 3q2 105 5.5 251t5.5 243t3 151l2.5 100t3 128t2.5 93q150 0 286 -2h-1q100 0 197 -54.5t167 -139t111.5 -189t38.5 -201.5q-3 -74 -21 -132.5t-44.5 -98t-68 -68.5t-83 -45t-99 -25.5t-105.5 -12t-112 -2.5h-243z
M503 445q1 43 -28 84t-69 50l-4 -188h24q75 8 77 54z" />
    <glyph glyph-name="e" unicode="e" horiz-adv-x="767" 
d="M142 885h501l-5 -195l-311 -1l-3 -100h212l-4 -197h-213l-3 -111l311 1l-5 -197q-327 -2 -499 0q6 240 11.5 474t7.5 326zM682 927h-577q-3 -110 -4 -165q-6 -217 -17 -719q126 -1 420 -1l158 -3l4 284q-48 0 -153.5 -0.5t-157.5 -0.5q0 8 0.5 17t0.5 12h214l5 280h-211
v16l312 1zM67 968h655l-8 -361l-102 -1l-3 -241h97l-9 -367l-193 3q-64 0 -230.5 0.5t-229.5 0.5q12 532 18 761q1 30 5 205z" />
    <glyph glyph-name="f" unicode="f" horiz-adv-x="710" 
d="M122 888h503l-6 -196l-312 -1l-2 -100h212l-3 -198h-214l-10 -310q-125 0 -189 1q8 283 14 532.5t7 271.5zM664 930h-580q-1 -15 -2 -66t-1 -67q0 -9 -6 -263t-13 -491q128 -2 265 -2q2 48 5.5 156.5t5.5 154.5h213l6 281h-213v16l313 1zM47 971h657l-9 -362l-101 -1
l-4 -298h-215q-2 -56 -5.5 -166t-4.5 -144q-215 0 -343 2q4 175 8.5 335.5t8 288t4.5 173.5q0 52 4 172z" />
    <glyph glyph-name="g" unicode="g" horiz-adv-x="886" 
d="M781 432l-9 -348h-228q-104 0 -203 73.5t-160 180t-71 209.5q-1 4 -1 37q3 76 26.5 131.5t62 87t89.5 52t109.5 25.5t121.5 8t125 -1q13 0 20.5 -0.5t18.5 -0.5h20l-6 -223h-236q-75 -4 -115.5 -33.5t-43.5 -100.5q-2 -77 58 -149t135 -72h86l3 125zM812 42l10 431
l-279 1q0 -13 -0.5 -34t-1.5 -49t-1 -42h-46q-59 1 -106.5 59t-45.5 119q1 50 41.5 71.5t116.5 24.5q0 -1 45 -1h190l8 305q-5 0 -44 0.5t-54 0.5q-62 2 -97 2q-82 0 -142 -6t-126 -26.5t-108 -57t-71.5 -101t-32.5 -154.5q0 -35 3 -47q12 -111 78.5 -224.5t174 -192
t220.5 -79.5h268zM864 515l-13 -514h-308q-93 0 -185.5 51t-160.5 129t-113.5 173.5t-53.5 184.5l1 -7q-3 42 -3 53q3 84 24 148.5t59.5 106t83 68.5t107 40.5t118 18t128.5 4.5q35 0 99 -2h138l-10 -389h-230q-5 0 -5 3q-76 -3 -116.5 -16t-41.5 -41q-2 -47 33 -90.5
t79 -44.5h7q0 53 3 125z" />
    <glyph glyph-name="h" unicode="h" horiz-adv-x="866" 
d="M129 888l198 -1l-8 -304l231 2l7 303l199 -1l-23 -804h-197l7 303l-231 -1l-7 -302h-198q5 191 10 365.5t7.5 266t4.5 173.5zM368 929l-279 1q-1 -31 -4 -176.5t-6 -236.5q-8 -275 -13 -476h278q2 44 4 150t3 152q47 0 151 2l-7 -304h277l25 888l-280 1q-1 -48 -3 -157
t-3 -147h-78.5t-72.5 -1zM51 971l358 -1l-8 -303q6 0 29 0.5t42 0.5q6 295 6 303l360 -1l-27 -970h-357l7 303q-19 -1 -71 -1q-6 -288 -6 -302h-360q3 111 8.5 303t6.5 214q2 71 4.5 156t4.5 173.5t3 124.5z" />
    <glyph glyph-name="i" unicode="i" horiz-adv-x="401" 
d="M128 886l-1 3l179 -1l-17 -807q-94 -2 -178 -2q5 259 10 492t7 315zM98 930l1 -51q-1 -50 -6.5 -307t-11.5 -535q93 0 237 3l17 890h-237zM72 866l-3 106l296 -1l-19 -973q-24 0 -147 -1t-147 -1q6 273 11.5 552t6.5 340z" />
    <glyph glyph-name="j" unicode="j" horiz-adv-x="736" 
d="M249 83h1l-101 226h55.5h67h57.5q44 0 72.5 31t34.5 79l12 469l189 -1q-1 -35 -0.5 -173t-4.5 -240.5t-18 -168.5q-20 -98 -81 -159t-155 -62q-86 0 -129 -1zM227 42h151q105 1 177 72.5t97 181.5q22 115 22 438q0 131 3 195l-266 1q-5 -195 -13 -505q-5 -31 -23.5 -52.5
t-45.5 -21.5h-241zM378 1l-176 -3l-175 394h302q26 0 31 33q2 65 7 263.5t7 282.5l343 -1q-5 -108 -5 -236q0 -333 -23 -446q-26 -128 -106.5 -207t-204.5 -80z" />
    <glyph glyph-name="k" unicode="k" horiz-adv-x="1014" 
d="M142 888l203 -1l-9 -292l10 2l225 290h279l-310 -399l320 -405h-225l-291 368l-11 6l-11 -374q-133 0 -201 1q8 285 14.5 540.5t6.5 263.5zM387 929l-285 1q-1 -25 -2.5 -88.5t-1.5 -80.5q-2 -90 -19 -718q136 -2 283 -2q1 23 9 309l244 -309h330q-267 339 -353 447
l343 441h-384q-109 -141 -171 -221zM62 971l368 -1l-5 -137q74 96 106 137h488l-373 -482q61 -77 202 -256t183 -232h-435l-188 236q-1 -30 -3 -114.5t-3 -121.5q-231 0 -365 2q5 190 12 441t8 319q1 22 3 105t2 104z" />
    <glyph glyph-name="l" unicode="l" horiz-adv-x="808" 
d="M127 891l195 -1l-16 -605l398 -3q-4 -132 -7 -197l-397 1v-1q-128 0 -194 1q6 238 21 805zM362 931l-274 1q-12 -456 -22 -886q130 -2 234 -2l435 -1q2 34 9 280q-56 0 -194 1.5t-204 2.5zM51 974l351 -1l-15 -605q74 -1 219.5 -2.5t178.5 -1.5q-2 -152 -12 -362h-473
q-144 0 -276 2q15 580 27 970z" />
    <glyph glyph-name="m" unicode="m" horiz-adv-x="1205" 
d="M117 85l22 802h268l189 -372l196 372q51 0 153.5 -0.5t152.5 -0.5l-24 -802q-140 0 -209 1l15 523q-55 -86 -141.5 -255.5t-139.5 -253.5l-165 321q-79 156 -94 186q-10 -354 -16 -522h-163q-8 0 -23 0.5t-21 0.5zM97 928l-24 -885h64q4 0 12 -0.5t12 -0.5h205
q4 105 11 389v7l11 -21q0 1 -2 4q-4 9 1 -1l9 -18l199 -388q98 153 180 318q54 105 57 111l-11 -399q140 -2 295 -2l26 886h-196h-180q-21 -39 -80 -150t-90 -170l-163 320h-336zM29 2l26 968h405l138 -270q70 133 142 270q26 0 103 -0.5t103 -0.5h240l-29 -968
q-35 0 -190 0.5t-190 0.5l7 253q-65 -126 -194 -326l-175 342q-5 -144 -8 -270h-246q-4 0 -12 0.5t-12 0.5h-108z" />
    <glyph glyph-name="n" unicode="n" horiz-adv-x="904" 
d="M109 86l21 801h220q47 -106 201 -438l11 438l225 -1l-23 -801q-145 0 -218 1l-227 476l-13 -477q-131 0 -197 1zM91 928l-23 -882q130 -2 278 -2q1 62 4.5 193.5t4.5 153.5l166 -346q73 -1 283 -1l24 883l-305 1q-5 -160 -8 -305q-96 208 -140 305h-284zM26 4l25 965h350
q17 -36 24.5 -53t8.5 -19.5t11 -24.5t34 -73q1 45 4 170h387l-28 -967q-199 0 -347 2l-105 221q-4 -155 -6 -223q-228 0 -358 2z" />
    <glyph glyph-name="o" unicode="o" horiz-adv-x="824" 
d="M440 877q150 -39 230.5 -175t65.5 -302q-13 -167 -113 -254.5t-250 -49.5q-149 39 -229 175t-66 304q15 166 114 253.5t248 48.5zM425 684q-72 19 -114 -25t-44 -136q-2 -208 124 -242q46 -12 81 13t52.5 66t21.5 89q4 47 -5.5 93.5t-39.5 87.5t-76 54zM416 643l-1 1
q46 -12 69 -61.5t23 -109.5q0 -12 -1 -20q-4 -53 -27 -94t-59 -41q-4 0 -20 4l2 -1q-97 26 -94 201q0 59 20.5 92.5t57.5 33.5q10 0 30 -5zM450 918q-47 12 -93 12q-134 0 -219.5 -97t-99.5 -255v2q-2 -15 -2 -51q0 -166 89 -298.5t239 -174.5q40 -12 92 -12q135 0 221.5 97
t99.5 255v-1q2 34 2 54q0 167 -88 298.5t-241 170.5zM460 958q167 -43 263 -185.5t96 -323.5q0 -24 -2 -58v2q-14 -176 -111.5 -283.5t-249.5 -107.5q-48 0 -102 14q-162 48 -260 192.5t-98 320.5q0 32 3 55l-1 -2q15 175 111.5 282.5t247.5 107.5q47 0 103 -14zM405 604h1
q-3 0 -10 1.5t-10 1.5q-36 0 -38 -85q-2 -143 63 -161h-2q2 0 6 -0.5t5 -0.5q19 0 31 29t15 67q1 8 1 17q0 46 -15.5 84t-46.5 47z" />
    <glyph glyph-name="p" unicode="p" horiz-adv-x="792" 
d="M126 887h1q42 0 126 0.5t126 0.5q108 0 201 -74.5t116 -178.5q23 -105 -37 -179t-168 -74h-184l-7 -297h-193q16 683 19 802zM311 547h151q39 0 61 26.5t14 63.5q-8 38 -41.5 65t-72.5 27q-18 0 -53.5 -0.5t-53.5 -0.5zM462 589h-110q0 18 0.5 48.5t1.5 48.5h15
q8 0 26.5 0.5t27.5 0.5q26 0 48 -17t27 -42q4 -16 -6.5 -27.5t-29.5 -11.5zM253 928h-165q-8 -267 -18 -754q-1 -15 -2.5 -65.5t-1.5 -63.5q128 -2 272 -2q4 125 8 298h145q110 0 180.5 68t70.5 173q0 33 -7 62q-26 118 -130.5 201.5t-225.5 83.5q-21 0 -63 -0.5t-63 -0.5z
M50 970h203q21 0 63 0.5t63 0.5q134 0 249.5 -93.5t144.5 -224.5q9 -45 9 -71q0 -122 -82 -202.5t-209 -80.5h-106q-1 -43 -8 -297q-288 0 -352 1q0 13 2 85.5t3 87.5v-1q13 602 20 795zM393 630h61q-12 16 -31 16q-20 0 -30 -1v-15zM460 618q0 1 -1 2l1 -1v-1z" />
    <glyph glyph-name="q" unicode="q" horiz-adv-x="877" 
d="M460 918q102 -23 175 -100t105.5 -183t22.5 -223q-11 -132 -72.5 -221t-159.5 -109q21 -73 79 -115q31 -22 93 -64.5t93 -63.5l-145 -158q-72 49 -110 78t-76 65.5t-54.5 71t-27.5 80t-13 108.5q-96 32 -164 110.5t-98.5 182t-21.5 216.5q15 179 117.5 273t256.5 52z
M445 710q-75 21 -118.5 -26.5t-45.5 -145.5q-3 -224 129 -261q47 -13 83 14t53.5 71.5t21.5 95.5t-6 101t-40 94t-77 57zM434 668q47 -13 70.5 -66t23.5 -116v-25q-4 -56 -27.5 -100t-61.5 -44q-8 0 -20 3l1 -1q-101 28 -98 218q1 63 22.5 99.5t58.5 36.5q17 0 31 -5z
M468 961h2q-48 13 -97 13q-138 0 -225.5 -104t-101.5 -274v2q-2 -16 -2 -53q0 -166 76 -301t211 -191q3 -51 11.5 -90.5t27.5 -75.5t40 -63.5t62.5 -62t80 -62.5t105.5 -74l203 222q-134 93 -179 122q-19 15 -51 35l2 -1q-28 20 -46 50q91 36 147.5 130.5t69.5 224.5
q2 32 2 56q0 180 -91 320.5t-247 176.5zM480 1003l-3 1q114 -26 199.5 -107.5t128 -193.5t42.5 -239q0 -34 -3 -61v1q-11 -124 -59.5 -218.5t-129.5 -146.5q39 -24 49 -33q147 -100 220 -152l-261 -285q-88 60 -137 96t-98 80t-73 82t-40.5 86.5t-22.5 109.5
q-136 66 -212.5 208.5t-76.5 313.5q0 34 3 57l-1 -1q15 187 114 302t254 115q51 0 107 -15zM424 625l-1 1q-10 3 -20 3q-18 0 -28.5 -25t-12.5 -68q0 -155 68 -174h-3q10 -2 12 -2q19 0 32 32t16 74q1 8 1 20q0 49 -16 89.5t-48 49.5z" />
    <glyph glyph-name="r" unicode="r" horiz-adv-x="797" 
d="M122 888h1h253q108 0 201.5 -74t116.5 -179q18 -84 -19.5 -151t-112.5 -91l140 -308h-184l-135 297h-79l-8 -297h-193q16 685 19 803zM308 547h151q39 0 60.5 26.5t13.5 63.5q-8 38 -41.5 65t-71.5 27h-107zM459 589h-111q1 25 2.5 55t1.5 43h68q26 0 47.5 -17t26.5 -42
q4 -16 -6.5 -27.5t-28.5 -11.5zM376 929h-293q-2 -78 -6.5 -277.5t-7.5 -343.5q-3 -99 -7 -263q128 -2 272 -2q4 125 8 298h16l135 -298q147 0 271 2q-123 272 -148 326q57 32 90 87.5t33 123.5q0 33 -7 62q-25 118 -129.5 201.5t-226.5 83.5zM45 971h331q134 0 250 -93
t144 -225q9 -37 9 -71q0 -71 -29.5 -130t-82.5 -97q154 -339 160 -351q-124 -2 -359 -2l-89 197q-4 -101 -6 -197q-287 0 -351 1q6 273 7 305q15 621 16 663zM389 630h62q-12 16 -31 16h-31v-16zM456 618v2v-2z" />
    <glyph glyph-name="s" unicode="s" horiz-adv-x="803" 
d="M414 302h1q77 0 94 34q14 28 -21 50q-33 20 -90 20l-42 1q-67 -1 -148 61t-101 155q-9 39 -9.5 72t5.5 58t19.5 45.5t30.5 34.5t40.5 24.5t47 16.5t53.5 10t57 5t59 1q136 0 268 -3l-6 -218h-329q-57 0 -66 -32q-8 -28 25 -47q25 -15 60 -15l49 -1q65 0 119.5 -21
t89.5 -56.5t57 -75t31 -80.5q15 -59 2 -102.5t-39.5 -73t-70 -47t-89.5 -25t-99 -7.5q-38 0 -151.5 -0.5t-143.5 -0.5l4 217h182h111zM415 343h-333l-6 -300q13 0 80.5 0.5t97.5 0.5q59 1 158 1q68 0 125.5 12t108.5 37.5t80 73.5t29 114q0 32 -8 69v-1q-10 47 -35 92
t-65 85t-101 64.5t-135 23.5l-49 1q-47 0 -47 13q0 -1 28 -1h368l8 300q-132 3 -309 3q-59 0 -104.5 -4t-94.5 -18.5t-81 -38.5t-52.5 -67t-20.5 -102q0 -46 11 -87q17 -71 70 -130.5t112 -89t106 -28.5l42 -1q75 0 75 -15q0 -7 -58 -7zM37 2l5 383h146q-130 85 -159 219
q-11 58 -11 97q0 70 23 120.5t58 79.5t89.5 45.5t105 21.5t116.5 5q45 0 109.5 -0.5t139 -2t101.5 -1.5l-10 -383h-115q114 -84 150 -226q10 -45 10 -78q0 -77 -32.5 -133.5t-89 -87t-121.5 -44.5t-140 -14q-99 0 -158 -1h-217z" />
    <glyph glyph-name="t" unicode="t" horiz-adv-x="839" 
d="M73 681l4 207q116 0 345 1t345 1q0 -39 -2 -113.5t-2 -94.5h-223l-15 -599q-133 0 -202 1l16 598zM37 930l-6 -290h267l-16 -597q138 -2 283 -2q3 98 8 304t7 295h222q0 38 3 104q3 144 3 188q-116 -1 -386 -1q-58 0 -193 -0.5t-192 -0.5zM-10 598l6 373q58 0 213.5 0.5
t212.5 0.5q195 0 427 2q0 -134 -4 -232q0 -38 -5 -143h-220q-9 -360 -15 -599q-227 0 -365 2l17 597q-48 0 -142.5 -0.5t-124.5 -0.5z" />
    <glyph glyph-name="u" unicode="u" horiz-adv-x="853" 
d="M383 104q-120 32 -201 130t-82 221l13 434l196 -1l-12 -458q-3 -119 107 -148q140 -37 146 138l12 469l198 -1l-15 -539q-6 -170 -99.5 -228.5t-262.5 -16.5zM373 65l-30 5q112 -26 170 -26q262 0 272 303l16 582l-278 1q-2 -82 -6.5 -261.5t-6.5 -247.5
q-4 -104 -61 -104q-13 0 -35 5q-79 21 -77 107l13 500l-277 1l-13 -475q2 -137 91 -246t222 -144zM513 2q-45 0 -152 23q-145 39 -242 159.5t-99 271.5l15 515h357l-15 -544q0 -53 47 -65h-1q20 -4 26 -4q18 0 21 65q2 59 7 260t7 288h359l-18 -625q-12 -344 -312 -344z
M303 38l54 -12q-8 1 -17 3t-20 5t-17 4z" />
    <glyph glyph-name="v" unicode="v" horiz-adv-x="892" 
d="M582 887l228 -1q-6 -22 -240 -801h-133l-373 804q39 -1 110 -1h108l187 -392zM865 928h-313q-52 -181 -93 -316l-150 317h-135q-63 0 -174 3l412 -888h189q20 69 142 476q53 170 122 408zM521 970l399 -1q-21 -71 -137 -461q-24 -80 -85 -285t-66 -221h-247l-451 973
q152 -4 240 -4h160l116 -244q14 50 40 137.5t31 105.5z" />
    <glyph glyph-name="w" unicode="w" horiz-adv-x="1335" 
d="M1035 886l242 -1l-255 -799h-142l-171 345l-110 -345h-142l-397 801h232l203 -406l163 405l234 -405zM1336 926l-332 1q-65 -184 -121 -344l-232 401q-21 -51 -77.5 -190.5t-83.5 -206.5l-171 342h-327l438 -884h201q41 132 87 272l135 -272h201zM972 969l423 -1
l-308 -965h-262l-98 198q-5 -15 -29 -90t-35 -108h-262l-479 967h425l139 -278q39 97 158 391l228 -395q64 179 100 281z" />
    <glyph glyph-name="x" unicode="x" horiz-adv-x="1068" 
d="M645 889h261l-267 -420l242 -386h-212q-105 167 -136 219l-139 -219h-261q33 51 126 198t145 227q-186 298 -237 381h211l132 -212q18 28 65 102t70 110zM982 931h-359q-11 -17 -38.5 -60.5t-33.5 -53.5v1q-7 -12 -22 -34.5t-19 -29.5l-110 177h-307q93 -153 234 -378
q4 -7 14 -22.5t14 -22.5q-111 -172 -120 -187q-98 -156 -178 -280h360q83 132 115 182q26 -43 65 -104t50 -78h308q-39 63 -134 215t-133 213zM601 972h456l-320 -503q220 -352 293 -469h-406q-67 104 -92 146q-18 -28 -49 -77.5t-43 -68.5h-458q23 37 110.5 173.5
t108.5 169.5h-1q22 35 53 83t53 82l-15 24q-27 43 -133.5 216t-138.5 224h406l86 -141q1 1 5 9v-1q26 44 85 133z" />
    <glyph glyph-name="y" unicode="y" horiz-adv-x="1017" 
d="M400 85l9 326l-286 480h232l157 -262l145 262h256l-300 -505l-8 -301h-205zM368 400l-10 -356h287q7 211 9 330l332 558h-354q-17 -30 -58.5 -105t-63.5 -114l-132 219h-328q52 -88 167.5 -280.5t150.5 -251.5zM315 2l12 387q-35 58 -166 277.5t-183 306.5h423l108 -178
q32 59 99 178h451l-363 -611l-10 -360h-371z" />
    <glyph glyph-name="z" unicode="z" horiz-adv-x="933" 
d="M123 691l6 197q121 -1 330 -2t312 -1l-1 -184l-380 -420q31 0 178 -0.5t236 -0.5l-3 -99t-2 -97l-689 2l2 196l384 409h-373zM89 929l-8 -279q54 0 157.5 -0.5t162.5 -0.5l-329 -350l-4 -254l771 -3l3 135q0 17 2 72.5t2 72.5q-48 0 -160.5 0.5t-152.5 0.5h-50l327 361
l2 243q-40 0 -169.5 0.5t-173.5 0.5q-110 1 -380 1zM40 609l10 363q55 0 208.5 -1t211.5 -2q50 0 197 -0.5t185 -0.5l-1 -300l-276 -304q47 0 160 -0.5t152 -0.5q-1 -17 -3 -93.5t-2 -93.5l-5 -175l-849 2l4 312l274 293q-50 0 -142 0.5t-124 0.5z" />
  </font>
</defs>
</svg>
