<?xml version="1.0" encoding="iso-8859-1"?>
<!-- Generator: Adobe Illustrator 19.0.0, SVG Export Plug-In . SVG Version: 6.00 Build 0)  -->
<svg version="1.1" id="Layer_1" xmlns="http://www.w3.org/2000/svg" xmlns:xlink="http://www.w3.org/1999/xlink" x="0px" y="0px"
	 viewBox="0 0 512 512" style="enable-background:new 0 0 512 512;" xml:space="preserve">
<circle style="fill:#CD5838;" cx="256" cy="266.854" r="237.676"/>
<path style="fill:#E6E7E4;" d="M256,504.455c-83.154,0-161.366-44.404-204.117-115.886l-1.222-2.044V80.842h410.678v305.683
	l-1.222,2.044C417.366,460.051,339.154,504.455,256,504.455z"/>
<path style="fill:#5683BF;" d="M50.661,94.855V31.915c0-13.437,10.933-24.37,24.37-24.37h361.937
	c13.438,0,24.371,10.933,24.371,24.37v62.939H50.661z"/>
<path style="fill:#CED0CD;" d="M105.778,388.569l-1.222-2.044V89.465H50.661v297.06l1.222,2.044
	C94.634,460.051,172.846,504.455,256,504.455c9.054,0,18.049-0.527,26.947-1.558C210.129,494.463,143.873,452.267,105.778,388.569z"
	/>
<path style="fill:#486D9A;" d="M128.926,7.545H75.031c-13.437,0-24.37,10.933-24.37,24.37v62.939h53.895V31.915
	C104.556,18.478,115.489,7.545,128.926,7.545z"/>
<circle style="fill:#CD5838;" cx="94.316" cy="51.2" r="21.558"/>
<circle style="fill:#ECB45D;" cx="158.989" cy="51.2" r="21.558"/>
<circle style="fill:#6F934F;" cx="223.663" cy="51.2" r="21.558"/>
<path d="M185.609,283.275c1.579,1.578,3.649,2.367,5.717,2.367s4.138-0.789,5.717-2.367c3.157-3.158,3.157-8.276,0-11.433
	l-58.959-58.958l58.958-58.957c3.157-3.158,3.157-8.276,0-11.433c-3.158-3.156-8.276-3.156-11.433,0l-64.674,64.674
	c-3.157,3.158-3.157,8.276,0,11.433L185.609,283.275z"/>
<path d="M314.957,283.275c1.579,1.578,3.649,2.367,5.717,2.367s4.138-0.789,5.717-2.367l64.674-64.674
	c3.157-3.158,3.157-8.276,0-11.433l-64.674-64.674c-3.158-3.156-8.276-3.156-11.433,0c-3.157,3.158-3.157,8.276,0,11.433
	l58.958,58.957l-58.958,58.957C311.8,274.999,311.8,280.117,314.957,283.275z"/>
<path d="M231.332,285.02c1.016,0.425,2.07,0.624,3.107,0.624c3.167,0,6.172-1.872,7.465-4.977l53.895-129.347
	c1.718-4.121-0.232-8.855-4.353-10.572c-4.122-1.719-8.854,0.232-10.572,4.353L226.98,274.448
	C225.262,278.569,227.212,283.303,231.332,285.02z"/>
<path d="M115.874,350.316h194.021c4.466,0,8.084-3.618,8.084-8.084s-3.618-8.084-8.084-8.084H115.874
	c-4.466,0-8.084,3.618-8.084,8.084S111.408,350.316,115.874,350.316z"/>
<path d="M344.926,342.232c0,4.466,3.618,8.084,8.084,8.084h43.116c4.466,0,8.084-3.618,8.084-8.084s-3.618-8.084-8.084-8.084H353.01
	C348.545,334.147,344.926,337.766,344.926,342.232z"/>
<path d="M169.768,388.042h-43.116c-4.466,0-8.084,3.618-8.084,8.084c0,4.466,3.618,8.084,8.084,8.084h43.116
	c4.466,0,8.084-3.618,8.084-8.084C177.853,391.661,174.234,388.042,169.768,388.042z"/>
<path d="M396.126,388.042H223.663c-4.466,0-8.084,3.618-8.084,8.084c0,4.466,3.618,8.084,8.084,8.084h172.463
	c4.466,0,8.084-3.618,8.084-8.084C404.211,391.661,400.592,388.042,396.126,388.042z"/>
<path d="M468.884,145.034V31.915C468.884,14.318,454.567,0,436.969,0H75.031C57.433,0,43.116,14.318,43.116,31.915v113.119
	c-21.158,36.928-32.337,78.969-32.337,121.745c0,43.521,11.565,86.287,33.444,123.673c21.252,36.314,51.67,66.756,87.963,88.032
	C169.592,500.41,212.407,512,256,512s86.408-11.59,123.813-33.516c36.294-21.275,66.712-51.716,87.963-88.032
	c21.88-37.387,33.445-80.152,33.445-123.673C501.221,224.003,490.042,181.962,468.884,145.034z M43.116,351.394
	c-10.637-26.787-16.168-55.517-16.168-84.615s5.532-57.828,16.168-84.615V351.394z M452.716,86.232H350.043
	c-4.465,0-8.084,3.62-8.084,8.084l0,0c0,4.465,3.62,8.084,8.084,8.084h102.673v281.742C411.482,453.089,336.314,495.832,256,495.832
	S100.518,453.089,59.284,384.142V102.4h251.38c4.465,0,8.084-3.62,8.084-8.084l0,0c0-4.465-3.62-8.084-8.084-8.084H59.284V31.915
	c0-8.696,7.051-15.747,15.747-15.747h361.937c8.698,0,15.748,7.051,15.748,15.747V86.232z M468.884,182.164
	c10.637,26.787,16.168,55.517,16.168,84.615s-5.532,57.828-16.168,84.615V182.164z"/>
<g>
</g>
<g>
</g>
<g>
</g>
<g>
</g>
<g>
</g>
<g>
</g>
<g>
</g>
<g>
</g>
<g>
</g>
<g>
</g>
<g>
</g>
<g>
</g>
<g>
</g>
<g>
</g>
<g>
</g>
</svg>
