<?xml version="1.0" encoding="iso-8859-1"?>
<!-- Generator: Adobe Illustrator 19.0.0, SVG Export Plug-In . SVG Version: 6.00 Build 0)  -->
<svg version="1.1" id="Layer_1" xmlns="http://www.w3.org/2000/svg" xmlns:xlink="http://www.w3.org/1999/xlink" x="0px" y="0px"
	 viewBox="0 0 512 512" style="enable-background:new 0 0 512 512;" xml:space="preserve">
<path style="fill:#C6C5CB;" d="M223.124,498.52V389.08h65.752v109.44c0,3.278-2.657,5.935-5.935,5.935H229.06
	C225.781,504.455,223.124,501.798,223.124,498.52z"/>
<path style="fill:#ACABB1;" d="M261.935,491.56c-3.278,0-5.935-2.657-5.935-5.935v-96.544h-32.876v109.44
	c0,3.278,2.657,5.935,5.935,5.935h53.881c3.278,0,5.935-2.657,5.935-5.935v-6.96h-26.94V491.56z"/>
<path style="fill:#E6E7E4;" d="M56.275,407.444c-9.039,0-16.393-7.353-16.393-16.392V132.581h432.236v258.472
	c0,9.038-7.353,16.392-16.393,16.392H56.275z"/>
<path style="fill:#CED0CD;" d="M91.621,391.053V132.581H39.882v258.472c0,9.038,7.353,16.392,16.393,16.392h51.739
	C98.974,407.444,91.621,400.091,91.621,391.053z"/>
<path style="fill:#486D9A;" d="M492.378,104.556H19.622c-6.659,0-12.077,5.417-12.077,12.077v20.04
	c0,6.659,5.417,12.077,12.077,12.077h472.756c6.659,0,12.077-5.417,12.077-12.077v-20.04
	C504.455,109.973,499.037,104.556,492.378,104.556z"/>
<path style="fill:#5683BF;" d="M352.472,342.771V15.773c0-4.543,3.684-8.228,8.228-8.228h27.737c4.544,0,8.228,3.684,8.228,8.228
	v326.998H352.472z"/>
<path style="fill:#6F934F;" d="M277.019,342.771V134.341c0-4.544,3.684-8.228,8.228-8.228h27.737c4.544,0,8.228,3.684,8.228,8.228
	v208.429H277.019z"/>
<path style="fill:#ECB45D;" d="M201.566,342.771V199.015c0-4.544,3.684-8.228,8.228-8.228h27.737c4.544,0,8.228,3.684,8.228,8.228
	v143.756H201.566z"/>
<g>
	<path style="fill:#CD5838;" d="M126.114,342.771V252.91c0-4.544,3.684-8.228,8.228-8.228h27.737c4.544,0,8.228,3.684,8.228,8.228
		v89.861H126.114z"/>
	<path style="fill:#CD5838;" d="M328.343,70.201l-10.779-32.337c-0.998-2.994-3.649-5.135-6.788-5.479
		c-0.144-0.016-0.286-0.008-0.429-0.016c0.001-0.004,0.002-0.01,0.003-0.014c-0.188-0.011-0.377-0.009-0.566-0.006
		c-0.109,0.001-0.218,0.003-0.327,0.01c-0.281,0.015-0.564,0.046-0.846,0.091c-0.097,0.015-0.192,0.032-0.288,0.051
		c-0.32,0.063-0.64,0.139-0.958,0.244c-0.004,0.001-0.01,0.002-0.014,0.004c-0.004,0.001-0.01,0.002-0.014,0.003L275.001,43.53
		c-4.236,1.412-6.524,5.991-5.114,10.226c1.13,3.388,4.284,5.53,7.668,5.53c0.847,0,1.71-0.135,2.558-0.417l9.855-3.284
		c-33.591,45.123-83.375,81.134-121.478,104.442c-47.404,28.996-87.558,45.193-87.958,45.352c-4.145,1.659-6.16,6.364-4.501,10.508
		c1.264,3.161,4.3,5.083,7.508,5.083c0.999,0,2.016-0.186,3-0.58c1.676-0.67,41.611-16.762,90.139-46.418
		c58.633-35.83,102.566-74.475,130.857-115.061l5.468,16.404c1.412,4.235,5.989,6.521,10.226,5.112
		C327.465,79.016,329.755,74.437,328.343,70.201z"/>
</g>
<path style="fill:#EAA03D;" d="M223.124,190.787h-13.33c-4.544,0-8.228,3.683-8.228,8.228v143.756h21.558V190.787z"/>
<path style="fill:#526D3E;" d="M299.116,126.114h-13.869c-4.544,0-8.228,3.683-8.228,8.228v208.429h22.097V126.114z"/>
<path style="fill:#486D9A;" d="M374.568,7.545h-13.869c-4.543,0-8.228,3.683-8.228,8.228v326.998h22.097V7.545z"/>
<path style="fill:#B72C11;" d="M148.211,244.682h-13.869c-4.544,0-8.228,3.683-8.228,8.228v89.861h22.097V244.682z"/>
<path d="M492.378,97.011h-88.167V8.084c0-4.466-3.62-8.084-8.084-8.084H353.01c-4.465,0-8.084,3.618-8.084,8.084v88.926h-69.101
	c12.13-12.485,22.714-25.194,31.711-38.1l5.468,16.404c1.412,4.235,5.989,6.521,10.226,5.112c4.236-1.412,6.525-5.991,5.114-10.226
	l-10.779-32.337c-0.113-0.34-0.253-0.661-0.405-0.974c-0.038-0.077-0.077-0.152-0.116-0.227c-0.144-0.275-0.301-0.54-0.473-0.792
	c-0.023-0.032-0.041-0.068-0.065-0.099c-0.202-0.287-0.421-0.555-0.655-0.809c-0.044-0.049-0.092-0.094-0.138-0.141
	c-0.204-0.211-0.417-0.41-0.64-0.596c-0.052-0.043-0.101-0.088-0.154-0.13c-0.262-0.207-0.536-0.399-0.82-0.571
	c-0.066-0.04-0.134-0.074-0.2-0.112c-0.236-0.135-0.478-0.257-0.727-0.366c-0.081-0.037-0.161-0.074-0.244-0.108
	c-0.309-0.125-0.625-0.233-0.949-0.32c-0.059-0.016-0.12-0.026-0.18-0.041c-0.294-0.071-0.593-0.126-0.895-0.164
	c-0.044-0.005-0.085-0.019-0.128-0.024c-0.026-0.003-0.053,0-0.079-0.003c-0.348-0.034-0.7-0.05-1.054-0.039
	c-0.047,0.001-0.094,0.008-0.141,0.01c-0.299,0.015-0.598,0.047-0.898,0.096c-0.085,0.014-0.17,0.027-0.255,0.044
	c-0.328,0.065-0.655,0.142-0.981,0.249c-0.005,0.001-0.011,0.002-0.016,0.004c-0.004,0.001-0.009,0.002-0.014,0.003L275,43.531
	c-4.236,1.412-6.525,5.991-5.114,10.226c1.13,3.388,4.284,5.53,7.668,5.53c0.847,0,1.71-0.135,2.558-0.417l9.855-3.284
	c-11.044,14.837-23.839,28.687-37.395,41.426H19.622C8.803,97.011,0,105.813,0,116.633v20.04c0,10.82,8.803,19.622,19.622,19.622
	h12.715v234.758c0,13.199,10.738,23.937,23.938,23.937h159.304v80.842h-24.253c-4.465,0-8.084,3.618-8.084,8.084
	s3.62,8.084,8.084,8.084h129.347c4.465,0,8.084-3.618,8.084-8.084s-3.62-8.084-8.084-8.084h-24.253v-80.842h159.304
	c13.199,0,23.938-10.738,23.938-23.937V156.295h12.715c10.82,0,19.622-8.802,19.622-19.622v-20.04
	C512,105.813,503.197,97.011,492.378,97.011z M361.095,16.168h26.947v317.979h-26.947V16.168z M259.108,113.179h85.819v26.947
	h-16.168v-13.474c0-4.466-3.62-8.084-8.084-8.084h-43.116c-4.465,0-8.084,3.618-8.084,8.084v13.474h-42.886
	C238.269,131.282,249.109,122.296,259.108,113.179z M312.589,275.152v58.995h-26.947V134.737h26.947V148.2c0,0.003,0,0.006,0,0.011
	c0,0.004,0,0.006,0,0.011v87.553c0,4.465,3.62,8.084,8.084,8.084l0,0c4.465,0,8.084-3.62,8.084-8.084v-79.48h16.168v177.853h-16.168
	v-58.995c0-4.465-3.62-8.084-8.084-8.084l0,0C316.209,267.068,312.589,270.687,312.589,275.152z M19.622,140.126
	c-1.905,0-3.454-1.55-3.454-3.454v-20.04c0-1.905,1.549-3.454,3.454-3.454h214.684c-11.751,9.826-23.728,18.836-35.351,26.947
	H19.622z M280.253,495.832h-48.505v-80.842h48.505V495.832z M463.495,391.053c0,4.284-3.485,7.768-7.769,7.768H56.275
	c-4.284,0-7.769-3.485-7.769-7.768V156.295h126.002c-2.031,1.274-4.043,2.526-6.015,3.732
	c-47.404,28.996-87.558,45.193-87.958,45.352c-4.145,1.659-6.16,6.364-4.501,10.508c1.264,3.161,4.3,5.083,7.508,5.083
	c0.999,0,2.016-0.186,3-0.58c1.676-0.67,41.611-16.762,90.139-46.418c9.522-5.818,18.65-11.713,27.393-17.676h65.402v177.853
	h-16.168V191.326c0-4.466-3.62-8.084-8.084-8.084h-43.116c-4.465,0-8.084,3.618-8.084,8.084v142.821h-16.168v-88.926
	c0-4.466-3.62-8.084-8.084-8.084h-43.116c-4.465,0-8.084,3.618-8.084,8.084v88.926H94.316c-4.465,0-8.084,3.618-8.084,8.084
	s3.62,8.084,8.084,8.084h334.147c4.465,0,8.084-3.618,8.084-8.084s-3.62-8.084-8.084-8.084h-24.253V156.295h59.284V391.053z
	 M237.137,199.411v134.737h-26.947V199.411H237.137z M161.684,253.305v80.842h-26.947v-80.842H161.684z M495.832,136.673
	c0,1.905-1.55,3.454-3.454,3.454h-88.167v-26.947h88.167c1.905,0,3.454,1.55,3.454,3.454V136.673z"/>
<g>
</g>
<g>
</g>
<g>
</g>
<g>
</g>
<g>
</g>
<g>
</g>
<g>
</g>
<g>
</g>
<g>
</g>
<g>
</g>
<g>
</g>
<g>
</g>
<g>
</g>
<g>
</g>
<g>
</g>
</svg>
