<?xml version="1.0" encoding="utf-8"?>
<!-- Generator: Adobe Illustrator 17.0.0, SVG Export Plug-In . SVG Version: 6.00 Build 0)  -->
<!DOCTYPE svg PUBLIC "-//W3C//DTD SVG 1.1//EN" "http://www.w3.org/Graphics/SVG/1.1/DTD/svg11.dtd">
<svg version="1.1" id="Layer_1" xmlns="http://www.w3.org/2000/svg" xmlns:xlink="http://www.w3.org/1999/xlink" x="0px" y="0px"
	 width="907.746px" height="151.408px" viewBox="0 0 907.746 151.408" enable-background="new 0 0 907.746 151.408"
	 xml:space="preserve">
	 <style>
	 	 	svg *{
			-moz-transition:all 0.3s ease-out;
			-o-transition:all 0.3s ease-out;
			-webkit-transition:all 0.3s ease-out;
				transition:all 0.3s ease-out;
	 	 	}

	 	 	.arrow1{
	 	 		animation:arrow 2s infinite;
	 	 	}

	 	 	.arrow2{
	 	 		animation:arrow 2s infinite 0.4s;
	 	 	}

	 	 	.arrow3{
	 	 		animation:arrow 2s infinite 0.8s;
	 	 	}

	 	 	@keyframes arrow{
	 	 		from{
	 	 			fill: #fff;
	 	 		}
	 	 		to{
	 	 			fill: #207B50;
	 	 		}
	 	 	}
	
	 </style>
<g>
	<rect x="10.254" y="19.085" fill="#FFFFFF" width="190" height="120"/>
	<g>
		<polyline fill="none" stroke="#006837" stroke-width="2" stroke-linecap="round" stroke-linejoin="round" points="
			200.254,135.085 200.254,139.085 196.254,139.085 		"/>
		
			<line fill="none" stroke="#006837" stroke-width="2" stroke-linecap="round" stroke-linejoin="round" stroke-dasharray="5,8,5,5" x1="191.254" y1="139.085" x2="169.254" y2="139.085"/>
		
			<line fill="none" stroke="#006837" stroke-width="2" stroke-linecap="round" stroke-linejoin="round" stroke-dasharray="8,5,5,8,5,5" x1="166.254" y1="139.085" x2="17.254" y2="139.085"/>
		<polyline fill="none" stroke="#006837" stroke-width="2" stroke-linecap="round" stroke-linejoin="round" points="14.254,139.085 
			10.254,139.085 10.254,135.085 		"/>
		
			<line fill="none" stroke="#006837" stroke-width="2" stroke-linecap="round" stroke-linejoin="round" stroke-dasharray="6,9,6,6" x1="10.254" y1="129.085" x2="10.254" y2="106.085"/>
		
			<line fill="none" stroke="#006837" stroke-width="2" stroke-linecap="round" stroke-linejoin="round" stroke-dasharray="9,6,6,9,6,6" x1="10.254" y1="103.085" x2="10.254" y2="25.085"/>
		<polyline fill="none" stroke="#006837" stroke-width="2" stroke-linecap="round" stroke-linejoin="round" points="10.254,23.085 
			10.254,19.085 14.254,19.085 		"/>
		
			<line fill="none" stroke="#006837" stroke-width="2" stroke-linecap="round" stroke-linejoin="round" stroke-dasharray="5,8,5,5" x1="19.254" y1="19.085" x2="41.254" y2="19.085"/>
		
			<line fill="none" stroke="#006837" stroke-width="2" stroke-linecap="round" stroke-linejoin="round" stroke-dasharray="8,5,5,8,5,5" x1="44.254" y1="19.085" x2="193.254" y2="19.085"/>
		<polyline fill="none" stroke="#006837" stroke-width="2" stroke-linecap="round" stroke-linejoin="round" points="196.254,19.085 
			200.254,19.085 200.254,23.085 		"/>
		
			<line fill="none" stroke="#006837" stroke-width="2" stroke-linecap="round" stroke-linejoin="round" stroke-dasharray="6,9,6,6" x1="200.254" y1="28.085" x2="200.254" y2="51.085"/>
		
			<line fill="none" stroke="#006837" stroke-width="2" stroke-linecap="round" stroke-linejoin="round" stroke-dasharray="9,6,6,9,6,6" x1="200.254" y1="54.085" x2="200.254" y2="132.085"/>
	</g>
</g>
<g>
	<rect x="245.254" y="18.085" fill="#FFFFFF" width="190" height="120"/>
	<g>
		<polyline fill="none" stroke="#006837" stroke-width="2" stroke-linecap="round" stroke-linejoin="round" points="
			435.254,134.085 435.254,138.085 431.254,138.085 		"/>
		
			<line fill="none" stroke="#006837" stroke-width="2" stroke-linecap="round" stroke-linejoin="round" stroke-dasharray="5,8,5,5" x1="425.254" y1="138.085" x2="404.254" y2="138.085"/>
		
			<line fill="none" stroke="#006837" stroke-width="2" stroke-linecap="round" stroke-linejoin="round" stroke-dasharray="8,5,5,8,5,5" x1="401.254" y1="138.085" x2="251.254" y2="138.085"/>
		<polyline fill="none" stroke="#006837" stroke-width="2" stroke-linecap="round" stroke-linejoin="round" points="
			249.254,138.085 245.254,138.085 245.254,134.085 		"/>
		
			<line fill="none" stroke="#006837" stroke-width="2" stroke-linecap="round" stroke-linejoin="round" stroke-dasharray="6,9,6,6" x1="245.254" y1="129.085" x2="245.254" y2="106.085"/>
		
			<line fill="none" stroke="#006837" stroke-width="2" stroke-linecap="round" stroke-linejoin="round" stroke-dasharray="9,6,6,9,6,6" x1="245.254" y1="103.085" x2="245.254" y2="25.085"/>
		<polyline fill="none" stroke="#006837" stroke-width="2" stroke-linecap="round" stroke-linejoin="round" points="245.254,22.085 
			245.254,18.085 249.254,18.085 		"/>
		
			<line fill="none" stroke="#006837" stroke-width="2" stroke-linecap="round" stroke-linejoin="round" stroke-dasharray="5,8,5,5" x1="254.254" y1="18.085" x2="276.254" y2="18.085"/>
		
			<line fill="none" stroke="#006837" stroke-width="2" stroke-linecap="round" stroke-linejoin="round" stroke-dasharray="8,5,5,8,5,5" x1="278.254" y1="18.085" x2="428.254" y2="18.085"/>
		<polyline fill="none" stroke="#006837" stroke-width="2" stroke-linecap="round" stroke-linejoin="round" points="431.254,18.085 
			435.254,18.085 435.254,22.085 		"/>
		
			<line fill="none" stroke="#006837" stroke-width="2" stroke-linecap="round" stroke-linejoin="round" stroke-dasharray="6,9,6,6" x1="435.254" y1="28.085" x2="435.254" y2="51.085"/>
		
			<line fill="none" stroke="#006837" stroke-width="2" stroke-linecap="round" stroke-linejoin="round" stroke-dasharray="9,6,6,9,6,6" x1="435.254" y1="54.085" x2="435.254" y2="132.085"/>
	</g>
</g>
<g>
	<path d="M61.468,60.463h-3.841v-2.061h10.182v2.061h-3.881v11.422h-2.46V60.463z"/>
	<path d="M68.287,65.284c0-1.32-0.02-2.26-0.08-3.141h2.141l0.08,1.86h0.08c0.48-1.38,1.621-2.08,2.661-2.08
		c0.24,0,0.38,0.02,0.58,0.06v2.321c-0.2-0.04-0.42-0.08-0.72-0.08c-1.181,0-1.98,0.76-2.201,1.86c-0.04,0.22-0.08,0.48-0.08,0.76
		v5.041h-2.46V65.284z"/>
	<path d="M80.708,71.885l-0.16-1.08h-0.06c-0.6,0.76-1.621,1.3-2.881,1.3c-1.96,0-3.061-1.42-3.061-2.901
		c0-2.46,2.181-3.701,5.781-3.681v-0.16c0-0.64-0.26-1.7-1.98-1.7c-0.96,0-1.96,0.3-2.621,0.72l-0.48-1.601
		c0.72-0.44,1.98-0.86,3.521-0.86c3.121,0,4.021,1.98,4.021,4.101v3.521c0,0.88,0.04,1.74,0.14,2.34H80.708z M80.388,67.124
		c-1.74-0.04-3.401,0.34-3.401,1.821c0,0.96,0.62,1.4,1.4,1.4c0.98,0,1.7-0.64,1.92-1.34c0.06-0.18,0.08-0.38,0.08-0.54V67.124z"/>
	<path d="M94.369,57.682v11.462c0,1,0.04,2.081,0.08,2.741h-2.201l-0.1-1.541h-0.04c-0.58,1.081-1.76,1.761-3.181,1.761
		c-2.32,0-4.161-1.98-4.161-4.981c-0.02-3.26,2.021-5.201,4.361-5.201c1.34,0,2.3,0.56,2.741,1.28h0.04v-5.521H94.369z
		 M91.909,66.204c0-0.2-0.02-0.44-0.06-0.64c-0.22-0.96-1-1.74-2.121-1.74c-1.58,0-2.46,1.4-2.46,3.221
		c0,1.78,0.88,3.081,2.44,3.081c1,0,1.88-0.68,2.121-1.741c0.06-0.22,0.08-0.46,0.08-0.72V66.204z"/>
	<path d="M99.628,59.422c0,0.74-0.54,1.32-1.4,1.32c-0.82,0-1.36-0.58-1.36-1.32c0-0.76,0.56-1.34,1.38-1.34
		C99.088,58.083,99.608,58.663,99.628,59.422z M97.007,71.885v-9.742h2.48v9.742H97.007z"/>
	<path d="M102.127,65.044c0-1.121-0.02-2.061-0.08-2.901h2.161l0.12,1.46h0.06c0.42-0.76,1.48-1.68,3.101-1.68
		c1.7,0,3.46,1.1,3.46,4.181v5.781h-2.46v-5.501c0-1.4-0.52-2.461-1.86-2.461c-0.98,0-1.661,0.7-1.92,1.44
		c-0.08,0.22-0.1,0.52-0.1,0.8v5.721h-2.48V65.044z"/>
	<path d="M122.469,62.143c-0.04,0.66-0.08,1.46-0.08,2.801v5.521c0,2.041-0.42,3.501-1.44,4.421c-1.02,0.9-2.42,1.18-3.761,1.18
		c-1.24,0-2.561-0.26-3.4-0.78l0.54-1.86c0.62,0.36,1.66,0.74,2.84,0.74c1.601,0,2.801-0.84,2.801-2.94v-0.84h-0.04
		c-0.56,0.86-1.561,1.44-2.841,1.44c-2.42,0-4.141-2-4.141-4.761c0-3.201,2.081-5.141,4.421-5.141c1.48,0,2.36,0.72,2.821,1.52h0.04
		l0.1-1.3H122.469z M119.928,66.044c0-0.22-0.02-0.46-0.08-0.66c-0.26-0.9-0.96-1.58-2-1.58c-1.38,0-2.4,1.2-2.4,3.181
		c0,1.66,0.84,3,2.38,3c0.92,0,1.721-0.6,2-1.48c0.06-0.26,0.1-0.6,0.1-0.88V66.044z"/>
	<path d="M58.887,82.402h2.44v6.201h0.06c0.32-0.52,0.66-1,0.98-1.46l3.521-4.741h3.041l-4.641,5.741l4.941,7.742h-2.881
		l-3.821-6.181l-1.2,1.44v4.741h-2.44V82.402z"/>
	<path d="M70.527,89.044c0-1.121-0.02-2.061-0.08-2.901h2.161l0.12,1.46h0.06c0.42-0.76,1.48-1.68,3.101-1.68
		c1.7,0,3.46,1.1,3.46,4.181v5.781h-2.46v-5.501c0-1.4-0.52-2.461-1.86-2.461c-0.98,0-1.66,0.7-1.92,1.44
		c-0.08,0.22-0.1,0.52-0.1,0.8v5.721h-2.48V89.044z"/>
	<path d="M91.228,90.924c0,3.581-2.521,5.181-5.001,5.181c-2.76,0-4.881-1.9-4.881-5.021c0-3.201,2.101-5.161,5.041-5.161
		C89.288,85.923,91.228,87.963,91.228,90.924z M83.887,91.024c0,1.88,0.92,3.3,2.42,3.3c1.4,0,2.38-1.38,2.38-3.34
		c0-1.521-0.68-3.261-2.36-3.261C84.587,87.724,83.887,89.404,83.887,91.024z"/>
	<path d="M94.567,86.143l1.02,4.421c0.22,1.041,0.44,2.101,0.62,3.161h0.04c0.2-1.06,0.52-2.14,0.8-3.141l1.26-4.441h2l1.22,4.321
		c0.3,1.141,0.56,2.201,0.78,3.261h0.04c0.16-1.06,0.38-2.12,0.64-3.261l1.081-4.321h2.42l-3.061,9.742h-2.281l-1.16-3.961
		c-0.3-1.02-0.52-1.94-0.74-3.121h-0.04c-0.2,1.2-0.46,2.161-0.74,3.121l-1.241,3.961h-2.3l-2.88-9.742H94.567z"/>
	<path d="M108.067,81.682h2.48v14.203h-2.48V81.682z"/>
	<path d="M114.946,91.705c0.06,1.76,1.44,2.521,3.001,2.521c1.14,0,1.96-0.16,2.7-0.44l0.36,1.701c-0.84,0.34-2,0.6-3.401,0.6
		c-3.161,0-5.021-1.94-5.021-4.921c0-2.7,1.64-5.241,4.761-5.241c3.161,0,4.201,2.601,4.201,4.741c0,0.46-0.04,0.82-0.08,1.041
		H114.946z M119.228,89.984c0.02-0.9-0.38-2.38-2.021-2.38c-1.521,0-2.161,1.38-2.261,2.38H119.228z"/>
	<path d="M132.508,81.682v11.462c0,1,0.04,2.081,0.08,2.741h-2.201l-0.1-1.541h-0.04c-0.58,1.081-1.76,1.761-3.181,1.761
		c-2.32,0-4.161-1.98-4.161-4.981c-0.02-3.26,2.021-5.201,4.361-5.201c1.34,0,2.3,0.56,2.741,1.28h0.04v-5.521H132.508z
		 M130.047,90.204c0-0.2-0.02-0.44-0.06-0.64c-0.22-0.96-1-1.74-2.121-1.74c-1.58,0-2.46,1.4-2.46,3.221
		c0,1.78,0.88,3.081,2.44,3.081c1,0,1.88-0.68,2.121-1.741c0.06-0.22,0.08-0.46,0.08-0.72V90.204z"/>
	<path d="M144.048,86.143c-0.04,0.66-0.08,1.46-0.08,2.801v5.521c0,2.041-0.42,3.501-1.44,4.421c-1.02,0.9-2.42,1.18-3.761,1.18
		c-1.24,0-2.561-0.26-3.4-0.78l0.54-1.86c0.62,0.36,1.66,0.74,2.84,0.74c1.601,0,2.801-0.84,2.801-2.94v-0.84h-0.04
		c-0.56,0.86-1.561,1.44-2.841,1.44c-2.42,0-4.141-2-4.141-4.761c0-3.201,2.081-5.141,4.421-5.141c1.48,0,2.36,0.72,2.821,1.52h0.04
		l0.1-1.3H144.048z M141.507,90.044c0-0.22-0.02-0.46-0.08-0.66c-0.26-0.9-0.96-1.58-2-1.58c-1.38,0-2.4,1.2-2.4,3.181
		c0,1.66,0.84,3,2.38,3c0.92,0,1.721-0.6,2-1.48c0.06-0.26,0.1-0.6,0.1-0.88V90.044z"/>
	<path d="M148.346,91.705c0.06,1.76,1.44,2.521,3.001,2.521c1.14,0,1.96-0.16,2.7-0.44l0.36,1.701c-0.84,0.34-2,0.6-3.401,0.6
		c-3.161,0-5.021-1.94-5.021-4.921c0-2.7,1.64-5.241,4.761-5.241c3.161,0,4.201,2.601,4.201,4.741c0,0.46-0.04,0.82-0.08,1.041
		H148.346z M152.628,89.984c0.02-0.9-0.38-2.38-2.021-2.38c-1.521,0-2.161,1.38-2.261,2.38H152.628z"/>
</g>
<g>
	<rect x="479.254" y="19.085" fill="#FFFFFF" width="190" height="120"/>
	<g>
		<polyline fill="none" stroke="#006837" stroke-width="2" stroke-linecap="round" stroke-linejoin="round" points="
			669.254,135.085 669.254,139.085 665.254,139.085 		"/>
		
			<line fill="none" stroke="#006837" stroke-width="2" stroke-linecap="round" stroke-linejoin="round" stroke-dasharray="5,8,5,5" x1="660.254" y1="139.085" x2="639.254" y2="139.085"/>
		
			<line fill="none" stroke="#006837" stroke-width="2" stroke-linecap="round" stroke-linejoin="round" stroke-dasharray="8,5,5,8,5,5" x1="636.254" y1="139.085" x2="486.254" y2="139.085"/>
		<polyline fill="none" stroke="#006837" stroke-width="2" stroke-linecap="round" stroke-linejoin="round" points="
			483.254,139.085 479.254,139.085 479.254,135.085 		"/>
		
			<line fill="none" stroke="#006837" stroke-width="2" stroke-linecap="round" stroke-linejoin="round" stroke-dasharray="6,9,6,6" x1="479.254" y1="129.085" x2="479.254" y2="106.085"/>
		
			<line fill="none" stroke="#006837" stroke-width="2" stroke-linecap="round" stroke-linejoin="round" stroke-dasharray="9,6,6,9,6,6" x1="479.254" y1="104.085" x2="479.254" y2="26.085"/>
		<polyline fill="none" stroke="#006837" stroke-width="2" stroke-linecap="round" stroke-linejoin="round" points="479.254,23.085 
			479.254,19.085 483.254,19.085 		"/>
		
			<line fill="none" stroke="#006837" stroke-width="2" stroke-linecap="round" stroke-linejoin="round" stroke-dasharray="5,8,5,5" x1="489.254" y1="19.085" x2="510.254" y2="19.085"/>
		
			<line fill="none" stroke="#006837" stroke-width="2" stroke-linecap="round" stroke-linejoin="round" stroke-dasharray="8,5,5,8,5,5" x1="513.254" y1="19.085" x2="663.254" y2="19.085"/>
		<polyline fill="none" stroke="#006837" stroke-width="2" stroke-linecap="round" stroke-linejoin="round" points="665.254,19.085 
			669.254,19.085 669.254,23.085 		"/>
		
			<line fill="none" stroke="#006837" stroke-width="2" stroke-linecap="round" stroke-linejoin="round" stroke-dasharray="6,9,6,6" x1="669.254" y1="29.085" x2="669.254" y2="52.085"/>
		
			<line fill="none" stroke="#006837" stroke-width="2" stroke-linecap="round" stroke-linejoin="round" stroke-dasharray="9,6,6,9,6,6" x1="669.254" y1="54.085" x2="669.254" y2="132.085"/>
	</g>
</g>
<g>
	<rect x="707.254" y="19.085" fill="#FFFFFF" width="190" height="120"/>
	<g>
		<polyline fill="none" stroke="#006837" stroke-width="2" stroke-linecap="round" stroke-linejoin="round" points="
			897.254,135.085 897.254,139.085 893.254,139.085 		"/>
		
			<line fill="none" stroke="#006837" stroke-width="2" stroke-linecap="round" stroke-linejoin="round" stroke-dasharray="5,8,5,5" x1="888.254" y1="139.085" x2="866.254" y2="139.085"/>
		
			<line fill="none" stroke="#006837" stroke-width="2" stroke-linecap="round" stroke-linejoin="round" stroke-dasharray="8,5,5,8,5,5" x1="863.254" y1="139.085" x2="714.254" y2="139.085"/>
		<polyline fill="none" stroke="#006837" stroke-width="2" stroke-linecap="round" stroke-linejoin="round" points="
			711.254,139.085 707.254,139.085 707.254,135.085 		"/>
		
			<line fill="none" stroke="#006837" stroke-width="2" stroke-linecap="round" stroke-linejoin="round" stroke-dasharray="6,9,6,6" x1="707.254" y1="129.085" x2="707.254" y2="106.085"/>
		
			<line fill="none" stroke="#006837" stroke-width="2" stroke-linecap="round" stroke-linejoin="round" stroke-dasharray="9,6,6,9,6,6" x1="707.254" y1="104.085" x2="707.254" y2="26.085"/>
		<polyline fill="none" stroke="#006837" stroke-width="2" stroke-linecap="round" stroke-linejoin="round" points="707.254,23.085 
			707.254,19.085 711.254,19.085 		"/>
		
			<line fill="none" stroke="#006837" stroke-width="2" stroke-linecap="round" stroke-linejoin="round" stroke-dasharray="5,8,5,5" x1="716.254" y1="19.085" x2="738.254" y2="19.085"/>
		
			<line fill="none" stroke="#006837" stroke-width="2" stroke-linecap="round" stroke-linejoin="round" stroke-dasharray="8,5,5,8,5,5" x1="741.254" y1="19.085" x2="890.254" y2="19.085"/>
		<polyline fill="none" stroke="#006837" stroke-width="2" stroke-linecap="round" stroke-linejoin="round" points="893.254,19.085 
			897.254,19.085 897.254,23.085 		"/>
		
			<line fill="none" stroke="#006837" stroke-width="2" stroke-linecap="round" stroke-linejoin="round" stroke-dasharray="6,9,6,6" x1="897.254" y1="29.085" x2="897.254" y2="52.085"/>
		
			<line fill="none" stroke="#006837" stroke-width="2" stroke-linecap="round" stroke-linejoin="round" stroke-dasharray="9,6,6,9,6,6" x1="897.254" y1="54.085" x2="897.254" y2="132.085"/>
	</g>
</g>
<g>
	<path d="M538.823,60.939h-3.841v-2.061h10.182v2.061h-3.881v11.422h-2.46V60.939z"/>
	<path d="M545.642,65.76c0-1.32-0.021-2.26-0.08-3.141h2.141l0.08,1.86h0.08c0.479-1.38,1.62-2.08,2.66-2.08
		c0.24,0,0.38,0.02,0.58,0.06v2.321c-0.2-0.04-0.42-0.08-0.72-0.08c-1.181,0-1.98,0.76-2.201,1.86
		c-0.039,0.22-0.079,0.48-0.079,0.76v5.041h-2.461V65.76z"/>
	<path d="M558.064,72.361l-0.16-1.08h-0.061c-0.6,0.76-1.62,1.3-2.88,1.3c-1.961,0-3.061-1.42-3.061-2.901
		c0-2.46,2.18-3.701,5.78-3.681v-0.16c0-0.64-0.26-1.7-1.979-1.7c-0.961,0-1.961,0.3-2.621,0.72l-0.48-1.601
		c0.721-0.44,1.98-0.86,3.521-0.86c3.12,0,4.021,1.98,4.021,4.101v3.521c0,0.88,0.04,1.74,0.14,2.34H558.064z M557.744,67.6
		c-1.74-0.04-3.4,0.34-3.4,1.821c0,0.96,0.62,1.4,1.399,1.4c0.98,0,1.701-0.64,1.921-1.34c0.06-0.18,0.08-0.38,0.08-0.54V67.6z"/>
	<path d="M571.723,58.158v11.462c0,1,0.04,2.081,0.08,2.741h-2.2l-0.1-1.541h-0.04c-0.58,1.081-1.761,1.761-3.181,1.761
		c-2.32,0-4.161-1.98-4.161-4.981c-0.021-3.26,2.021-5.201,4.361-5.201c1.34,0,2.3,0.56,2.74,1.28h0.04v-5.521H571.723z
		 M569.263,66.68c0-0.2-0.021-0.44-0.061-0.64c-0.22-0.96-1-1.74-2.12-1.74c-1.58,0-2.461,1.4-2.461,3.221
		c0,1.78,0.881,3.081,2.441,3.081c1,0,1.88-0.68,2.12-1.741c0.06-0.22,0.08-0.46,0.08-0.72V66.68z"/>
	<path d="M576.982,59.898c0,0.74-0.54,1.32-1.399,1.32c-0.82,0-1.36-0.58-1.36-1.32c0-0.76,0.56-1.34,1.38-1.34
		C576.442,58.559,576.963,59.139,576.982,59.898z M574.362,72.361v-9.742h2.48v9.742H574.362z"/>
	<path d="M579.482,65.52c0-1.121-0.021-2.061-0.08-2.901h2.16l0.12,1.46h0.061c0.42-0.76,1.48-1.68,3.101-1.68
		c1.7,0,3.461,1.1,3.461,4.181v5.781h-2.461V66.86c0-1.4-0.521-2.461-1.86-2.461c-0.98,0-1.66,0.7-1.921,1.44
		c-0.079,0.22-0.1,0.52-0.1,0.8v5.721h-2.48V65.52z"/>
	<path d="M599.824,62.619c-0.04,0.66-0.08,1.46-0.08,2.801v5.521c0,2.041-0.421,3.501-1.44,4.421c-1.021,0.9-2.421,1.18-3.761,1.18
		c-1.24,0-2.561-0.26-3.401-0.78l0.54-1.86c0.62,0.36,1.661,0.74,2.841,0.74c1.601,0,2.801-0.84,2.801-2.94v-0.84h-0.04
		c-0.561,0.86-1.561,1.44-2.841,1.44c-2.42,0-4.141-2-4.141-4.761c0-3.201,2.08-5.141,4.421-5.141c1.48,0,2.36,0.72,2.82,1.52h0.04
		l0.101-1.3H599.824z M597.283,66.52c0-0.22-0.02-0.46-0.08-0.66c-0.26-0.9-0.96-1.58-2-1.58c-1.381,0-2.401,1.2-2.401,3.181
		c0,1.66,0.841,3,2.381,3c0.92,0,1.721-0.6,2.001-1.48c0.06-0.26,0.1-0.6,0.1-0.88V66.52z"/>
	<path d="M536.182,93.681c0.8,0.46,2,0.86,3.261,0.86c1.58,0,2.46-0.74,2.46-1.84c0-1.021-0.68-1.621-2.4-2.241
		c-2.22-0.8-3.641-1.98-3.641-3.921c0-2.2,1.841-3.881,4.761-3.881c1.461,0,2.541,0.32,3.241,0.68l-0.601,1.98
		c-0.479-0.26-1.42-0.64-2.681-0.64c-1.56,0-2.24,0.84-2.24,1.621c0,1.04,0.78,1.52,2.581,2.22c2.34,0.88,3.48,2.061,3.48,4.001
		c0,2.161-1.641,4.041-5.121,4.041c-1.42,0-2.9-0.4-3.641-0.84L536.182,93.681z"/>
	<path d="M549.262,83.839v2.78h2.341v1.84h-2.341v4.301c0,1.18,0.32,1.8,1.261,1.8c0.42,0,0.74-0.06,0.96-0.12l0.04,1.88
		c-0.36,0.14-1,0.24-1.78,0.24c-0.9,0-1.66-0.3-2.12-0.8c-0.521-0.56-0.761-1.44-0.761-2.721V88.46h-1.4v-1.84h1.4v-2.2
		L549.262,83.839z"/>
	<path d="M553.463,89.76c0-1.32-0.021-2.26-0.08-3.141h2.141l0.08,1.86h0.08c0.479-1.38,1.62-2.08,2.66-2.08
		c0.24,0,0.38,0.02,0.58,0.06v2.321c-0.2-0.04-0.42-0.08-0.72-0.08c-1.181,0-1.98,0.76-2.201,1.86
		c-0.039,0.22-0.079,0.48-0.079,0.76v5.041h-2.461V89.76z"/>
	<path d="M565.883,96.361l-0.16-1.08h-0.061c-0.6,0.76-1.62,1.3-2.88,1.3c-1.961,0-3.062-1.42-3.062-2.901
		c0-2.46,2.181-3.701,5.781-3.681v-0.16c0-0.64-0.26-1.7-1.979-1.7c-0.961,0-1.961,0.3-2.621,0.72l-0.48-1.601
		c0.721-0.44,1.98-0.86,3.521-0.86c3.12,0,4.021,1.98,4.021,4.101v3.521c0,0.88,0.04,1.74,0.14,2.34H565.883z M565.563,91.6
		c-1.74-0.04-3.4,0.34-3.4,1.821c0,0.96,0.62,1.4,1.4,1.4c0.979,0,1.7-0.64,1.92-1.34c0.06-0.18,0.08-0.38,0.08-0.54V91.6z"/>
	<path d="M573.262,83.839v2.78h2.341v1.84h-2.341v4.301c0,1.18,0.32,1.8,1.261,1.8c0.42,0,0.74-0.06,0.96-0.12l0.04,1.88
		c-0.36,0.14-1,0.24-1.78,0.24c-0.9,0-1.66-0.3-2.12-0.8c-0.521-0.56-0.761-1.44-0.761-2.721V88.46h-1.4v-1.84h1.4v-2.2
		L573.262,83.839z"/>
	<path d="M579.083,92.181c0.061,1.76,1.44,2.521,3.001,2.521c1.14,0,1.96-0.16,2.7-0.44l0.36,1.701c-0.84,0.34-2.001,0.6-3.4,0.6
		c-3.161,0-5.021-1.94-5.021-4.921c0-2.7,1.641-5.241,4.761-5.241c3.161,0,4.201,2.601,4.201,4.741c0,0.46-0.04,0.82-0.08,1.041
		H579.083z M583.364,90.46c0.02-0.9-0.38-2.38-2.021-2.38c-1.521,0-2.16,1.38-2.261,2.38H583.364z"/>
	<path d="M596.564,86.619c-0.04,0.66-0.08,1.46-0.08,2.801v5.521c0,2.041-0.421,3.501-1.44,4.421c-1.021,0.9-2.421,1.18-3.761,1.18
		c-1.24,0-2.561-0.26-3.401-0.78l0.54-1.86c0.62,0.36,1.661,0.74,2.841,0.74c1.601,0,2.801-0.84,2.801-2.94v-0.84h-0.04
		c-0.561,0.86-1.561,1.44-2.841,1.44c-2.42,0-4.141-2-4.141-4.761c0-3.201,2.08-5.141,4.421-5.141c1.48,0,2.36,0.72,2.82,1.52h0.04
		l0.101-1.3H596.564z M594.023,90.52c0-0.22-0.02-0.46-0.08-0.66c-0.26-0.9-0.96-1.58-2-1.58c-1.381,0-2.401,1.2-2.401,3.181
		c0,1.66,0.841,3,2.381,3c0.92,0,1.721-0.6,2.001-1.48c0.06-0.26,0.1-0.6,0.1-0.88V90.52z"/>
	<path d="M600.662,86.619l1.761,5.221c0.2,0.6,0.4,1.34,0.54,1.9h0.06c0.16-0.56,0.341-1.28,0.521-1.92l1.521-5.201h2.641
		l-2.44,6.642c-1.341,3.641-2.241,5.261-3.401,6.261c-0.96,0.86-1.96,1.18-2.58,1.26l-0.561-2.081c0.42-0.1,0.94-0.32,1.44-0.68
		c0.46-0.3,1-0.88,1.341-1.54c0.1-0.18,0.159-0.32,0.159-0.44c0-0.1-0.02-0.24-0.14-0.48l-3.561-8.942H600.662z"/>
</g>
<g>
	<path d="M309.956,60.675h-3.841v-2.061h10.182v2.061h-3.881v11.422h-2.46V60.675z"/>
	<path d="M316.775,65.496c0-1.32-0.02-2.26-0.08-3.141h2.141l0.08,1.86h0.08c0.48-1.38,1.621-2.08,2.661-2.08
		c0.24,0,0.38,0.02,0.58,0.06v2.321c-0.2-0.04-0.42-0.08-0.72-0.08c-1.181,0-1.98,0.76-2.201,1.86c-0.04,0.22-0.08,0.48-0.08,0.76
		v5.041h-2.46V65.496z"/>
	<path d="M329.196,72.097l-0.16-1.08h-0.06c-0.6,0.76-1.621,1.3-2.881,1.3c-1.96,0-3.061-1.42-3.061-2.901
		c0-2.46,2.181-3.701,5.781-3.681v-0.16c0-0.64-0.26-1.7-1.98-1.7c-0.96,0-1.96,0.3-2.621,0.72l-0.48-1.601
		c0.72-0.44,1.98-0.86,3.521-0.86c3.121,0,4.021,1.98,4.021,4.101v3.521c0,0.88,0.04,1.74,0.14,2.34H329.196z M328.876,67.336
		c-1.74-0.04-3.401,0.34-3.401,1.821c0,0.96,0.62,1.4,1.4,1.4c0.98,0,1.7-0.64,1.92-1.34c0.06-0.18,0.08-0.38,0.08-0.54V67.336z"/>
	<path d="M342.857,57.894v11.462c0,1,0.04,2.081,0.08,2.741h-2.201l-0.1-1.541h-0.04c-0.58,1.081-1.76,1.761-3.181,1.761
		c-2.32,0-4.161-1.98-4.161-4.981c-0.02-3.26,2.021-5.201,4.361-5.201c1.34,0,2.301,0.56,2.741,1.28h0.04v-5.521H342.857z
		 M340.397,66.416c0-0.2-0.02-0.44-0.06-0.64c-0.22-0.96-1-1.74-2.121-1.74c-1.58,0-2.46,1.4-2.46,3.221
		c0,1.78,0.88,3.081,2.44,3.081c1,0,1.88-0.68,2.121-1.741c0.06-0.22,0.08-0.46,0.08-0.72V66.416z"/>
	<path d="M348.115,59.634c0,0.74-0.54,1.32-1.4,1.32c-0.82,0-1.36-0.58-1.36-1.32c0-0.76,0.56-1.34,1.38-1.34
		C347.575,58.294,348.095,58.875,348.115,59.634z M345.495,72.097v-9.742h2.48v9.742H345.495z"/>
	<path d="M350.615,65.256c0-1.121-0.02-2.061-0.08-2.901h2.161l0.12,1.46h0.06c0.42-0.76,1.48-1.68,3.101-1.68
		c1.7,0,3.46,1.1,3.46,4.181v5.781h-2.46v-5.501c0-1.4-0.52-2.461-1.86-2.461c-0.98,0-1.66,0.7-1.92,1.44
		c-0.08,0.22-0.1,0.52-0.1,0.8v5.721h-2.48V65.256z"/>
	<path d="M370.957,62.355c-0.04,0.66-0.08,1.46-0.08,2.801v5.521c0,2.041-0.42,3.501-1.44,4.421c-1.02,0.9-2.42,1.18-3.761,1.18
		c-1.24,0-2.561-0.26-3.4-0.78l0.54-1.86c0.62,0.36,1.66,0.74,2.84,0.74c1.601,0,2.801-0.84,2.801-2.94v-0.84h-0.04
		c-0.56,0.86-1.561,1.44-2.841,1.44c-2.42,0-4.141-2-4.141-4.761c0-3.201,2.081-5.141,4.421-5.141c1.48,0,2.36,0.72,2.821,1.52h0.04
		l0.1-1.3H370.957z M368.416,66.256c0-0.22-0.02-0.46-0.08-0.66c-0.26-0.9-0.96-1.58-2-1.58c-1.38,0-2.4,1.2-2.4,3.181
		c0,1.66,0.84,3,2.38,3c0.92,0,1.721-0.6,2-1.48c0.06-0.26,0.1-0.6,0.1-0.88V66.256z"/>
	<path d="M307.375,82.794c0.88-0.16,2.1-0.28,3.761-0.28c1.8,0,3.121,0.38,3.981,1.101c0.8,0.66,1.32,1.72,1.32,2.98
		c0,1.28-0.4,2.34-1.161,3.061c-0.98,0.98-2.521,1.44-4.261,1.44c-0.46,0-0.88-0.02-1.2-0.08v5.081h-2.44V82.794z M309.816,89.076
		c0.3,0.08,0.7,0.1,1.2,0.1c1.84,0,2.96-0.9,2.96-2.48c0-1.5-1.04-2.301-2.74-2.301c-0.68,0-1.16,0.06-1.42,0.12V89.076z"/>
	<path d="M318.395,81.894h2.48v14.203h-2.48V81.894z"/>
	<path d="M329.016,96.097l-0.16-1.08h-0.06c-0.6,0.76-1.621,1.3-2.881,1.3c-1.96,0-3.061-1.42-3.061-2.901
		c0-2.46,2.181-3.701,5.781-3.681v-0.16c0-0.64-0.26-1.7-1.98-1.7c-0.96,0-1.96,0.3-2.621,0.72l-0.48-1.601
		c0.72-0.44,1.98-0.86,3.521-0.86c3.121,0,4.021,1.98,4.021,4.101v3.521c0,0.88,0.04,1.74,0.14,2.34H329.016z M328.696,91.336
		c-1.74-0.04-3.401,0.34-3.401,1.821c0,0.96,0.62,1.4,1.4,1.4c0.98,0,1.7-0.64,1.92-1.34c0.06-0.18,0.08-0.38,0.08-0.54V91.336z"/>
	<path d="M333.695,89.256c0-1.121-0.02-2.061-0.08-2.901h2.161l0.12,1.46h0.06c0.42-0.76,1.48-1.68,3.101-1.68
		c1.7,0,3.46,1.1,3.46,4.181v5.781h-2.46v-5.501c0-1.4-0.52-2.461-1.86-2.461c-0.98,0-1.66,0.7-1.92,1.44
		c-0.08,0.22-0.1,0.52-0.1,0.8v5.721h-2.48V89.256z"/>
</g>
<g>
	<path d="M766.464,60.941h-3.841v-2.061h10.182v2.061h-3.881v11.422h-2.46V60.941z"/>
	<path d="M773.283,65.762c0-1.32-0.021-2.26-0.08-3.141h2.141l0.08,1.86h0.08c0.479-1.38,1.62-2.08,2.66-2.08
		c0.24,0,0.38,0.02,0.58,0.06v2.321c-0.2-0.04-0.42-0.08-0.72-0.08c-1.181,0-1.98,0.76-2.201,1.86
		c-0.039,0.22-0.079,0.48-0.079,0.76v5.041h-2.461V65.762z"/>
	<path d="M785.705,72.364l-0.16-1.08h-0.061c-0.6,0.76-1.62,1.3-2.88,1.3c-1.961,0-3.061-1.42-3.061-2.901
		c0-2.46,2.18-3.701,5.78-3.681v-0.16c0-0.64-0.26-1.7-1.979-1.7c-0.961,0-1.961,0.3-2.621,0.72l-0.48-1.601
		c0.721-0.44,1.98-0.86,3.521-0.86c3.12,0,4.021,1.98,4.021,4.101v3.521c0,0.88,0.04,1.74,0.14,2.34H785.705z M785.384,67.603
		c-1.74-0.04-3.4,0.34-3.4,1.821c0,0.96,0.62,1.4,1.399,1.4c0.98,0,1.701-0.64,1.921-1.34c0.06-0.18,0.08-0.38,0.08-0.541V67.603z"
		/>
	<path d="M799.364,58.161v11.462c0,1,0.04,2.081,0.08,2.741h-2.2l-0.1-1.541h-0.04c-0.58,1.081-1.761,1.761-3.181,1.761
		c-2.32,0-4.161-1.98-4.161-4.981c-0.021-3.26,2.021-5.201,4.361-5.201c1.34,0,2.3,0.56,2.74,1.28h0.04v-5.521H799.364z
		 M796.904,66.683c0-0.2-0.021-0.44-0.061-0.64c-0.22-0.96-1-1.74-2.12-1.74c-1.58,0-2.461,1.4-2.461,3.221
		c0,1.78,0.881,3.081,2.441,3.081c1,0,1.88-0.68,2.12-1.741c0.06-0.22,0.08-0.46,0.08-0.72V66.683z"/>
	<path d="M804.623,59.901c0,0.74-0.54,1.32-1.399,1.32c-0.82,0-1.36-0.58-1.36-1.32c0-0.76,0.56-1.34,1.38-1.34
		C804.083,58.561,804.603,59.141,804.623,59.901z M802.003,72.364v-9.742h2.48v9.742H802.003z"/>
	<path d="M807.123,65.522c0-1.121-0.021-2.061-0.08-2.901h2.16l0.12,1.46h0.061c0.42-0.76,1.48-1.68,3.101-1.68
		c1.7,0,3.461,1.1,3.461,4.181v5.781h-2.461v-5.501c0-1.4-0.521-2.461-1.86-2.461c-0.98,0-1.66,0.7-1.921,1.44
		c-0.079,0.22-0.1,0.52-0.1,0.8v5.721h-2.48V65.522z"/>
	<path d="M827.464,62.622c-0.04,0.66-0.08,1.46-0.08,2.801v5.521c0,2.041-0.421,3.501-1.44,4.421c-1.021,0.9-2.421,1.18-3.761,1.18
		c-1.24,0-2.561-0.26-3.401-0.78l0.54-1.86c0.62,0.36,1.661,0.74,2.841,0.74c1.601,0,2.801-0.84,2.801-2.94v-0.84h-0.04
		c-0.561,0.86-1.561,1.44-2.841,1.44c-2.42,0-4.141-2-4.141-4.761c0-3.201,2.08-5.141,4.421-5.141c1.48,0,2.36,0.72,2.82,1.52h0.04
		l0.101-1.3H827.464z M824.923,66.522c0-0.22-0.02-0.46-0.08-0.66c-0.26-0.9-0.96-1.58-2-1.58c-1.381,0-2.401,1.2-2.401,3.181
		c0,1.66,0.841,3,2.381,3c0.92,0,1.721-0.6,2.001-1.48c0.06-0.26,0.1-0.6,0.1-0.88V66.522z"/>
	<path d="M763.882,83.061c0.881-0.16,2.101-0.28,3.761-0.28c1.801,0,3.121,0.38,3.981,1.1c0.8,0.66,1.32,1.721,1.32,2.981
		c0,1.28-0.4,2.34-1.16,3.061c-0.98,0.98-2.521,1.44-4.261,1.44c-0.461,0-0.881-0.02-1.201-0.08v5.081h-2.44V83.061z
		 M766.323,89.342c0.301,0.08,0.7,0.1,1.201,0.1c1.84,0,2.96-0.9,2.96-2.48c0-1.5-1.04-2.301-2.74-2.301
		c-0.681,0-1.16,0.06-1.421,0.12V89.342z"/>
	<path d="M774.422,94.104c0.561,0.34,1.62,0.7,2.501,0.7c1.08,0,1.56-0.44,1.56-1.08c0-0.66-0.399-1-1.6-1.42
		c-1.9-0.66-2.701-1.7-2.681-2.84c0-1.721,1.42-3.061,3.681-3.061c1.08,0,2.021,0.28,2.58,0.58l-0.479,1.74
		c-0.42-0.24-1.2-0.56-2.061-0.56c-0.88,0-1.36,0.42-1.36,1.02c0,0.62,0.46,0.92,1.7,1.36c1.761,0.64,2.581,1.541,2.601,2.98
		c0,1.761-1.38,3.041-3.961,3.041c-1.18,0-2.24-0.28-2.961-0.68L774.422,94.104z"/>
	<path d="M784.422,86.622l1.761,5.221c0.2,0.6,0.4,1.34,0.54,1.9h0.06c0.16-0.56,0.341-1.28,0.521-1.92l1.521-5.201h2.641
		l-2.44,6.642c-1.341,3.641-2.241,5.261-3.401,6.261c-0.96,0.86-1.96,1.18-2.58,1.26l-0.561-2.081c0.42-0.1,0.94-0.32,1.44-0.68
		c0.46-0.3,1-0.88,1.341-1.54c0.1-0.18,0.159-0.32,0.159-0.44c0-0.1-0.02-0.24-0.14-0.48l-3.561-8.942H784.422z"/>
	<path d="M799.784,96.064c-0.52,0.24-1.54,0.5-2.76,0.5c-3.041,0-5.021-1.94-5.021-4.961c0-2.92,2-5.201,5.421-5.201
		c0.9,0,1.82,0.2,2.381,0.46l-0.44,1.84c-0.399-0.18-0.98-0.38-1.86-0.38c-1.88,0-3.001,1.38-2.98,3.161c0,2,1.3,3.141,2.98,3.141
		c0.86,0,1.461-0.18,1.94-0.38L799.784,96.064z"/>
	<path d="M810.684,91.403c0,3.581-2.521,5.181-5.001,5.181c-2.761,0-4.881-1.9-4.881-5.021c0-3.2,2.101-5.161,5.041-5.161
		C808.744,86.402,810.684,88.442,810.684,91.403z M803.342,91.503c0,1.88,0.921,3.3,2.421,3.3c1.4,0,2.381-1.38,2.381-3.34
		c0-1.521-0.681-3.261-2.36-3.261C804.043,88.202,803.342,89.882,803.342,91.503z"/>
	<path d="M812.703,82.161h2.48v14.203h-2.48V82.161z"/>
	<path d="M827.104,91.403c0,3.581-2.521,5.181-5.001,5.181c-2.761,0-4.881-1.9-4.881-5.021c0-3.2,2.101-5.161,5.041-5.161
		C825.164,86.402,827.104,88.442,827.104,91.403z M819.762,91.503c0,1.88,0.921,3.3,2.421,3.3c1.4,0,2.381-1.38,2.381-3.34
		c0-1.521-0.681-3.261-2.36-3.261C820.463,88.202,819.762,89.882,819.762,91.503z"/>
	<path d="M838.025,86.622c-0.04,0.66-0.08,1.46-0.08,2.801v5.521c0,2.041-0.421,3.501-1.44,4.421c-1.021,0.9-2.421,1.18-3.761,1.18
		c-1.24,0-2.561-0.26-3.401-0.78l0.54-1.86c0.62,0.36,1.661,0.74,2.841,0.74c1.601,0,2.801-0.84,2.801-2.94v-0.84h-0.04
		c-0.561,0.86-1.561,1.44-2.841,1.44c-2.42,0-4.141-2-4.141-4.761c0-3.201,2.08-5.141,4.421-5.141c1.48,0,2.36,0.72,2.82,1.52h0.04
		l0.101-1.3H838.025z M835.484,90.522c0-0.22-0.02-0.46-0.08-0.66c-0.26-0.9-0.96-1.58-2-1.58c-1.381,0-2.401,1.2-2.401,3.181
		c0,1.66,0.841,3,2.381,3c0.92,0,1.721-0.6,2.001-1.48c0.06-0.26,0.1-0.6,0.1-0.88V90.522z"/>
	<path d="M842.123,86.622l1.761,5.221c0.2,0.6,0.4,1.34,0.54,1.9h0.06c0.16-0.56,0.341-1.28,0.521-1.92l1.521-5.201h2.641
		l-2.44,6.642c-1.341,3.641-2.241,5.261-3.401,6.261c-0.96,0.86-1.96,1.18-2.58,1.26l-0.561-2.081c0.42-0.1,0.94-0.32,1.44-0.68
		c0.46-0.3,1-0.88,1.341-1.54c0.1-0.18,0.159-0.32,0.159-0.44c0-0.1-0.02-0.24-0.14-0.48l-3.561-8.942H842.123z"/>
</g>
<g>
	
		<path fill="none" stroke="#006837" stroke-linecap="round" stroke-linejoin="round" stroke-miterlimit="10" stroke-dasharray="8,5,5" d="
		M287.324,255.282"/>
</g>
<g>
	<g>
		<g>
			
				<rect x="185.334" y="64.06" transform="matrix(-0.9994 0.0345 -0.0345 -0.9994 402.6358 152.9191)" fill="none" width="29.331" height="31.739"/>
			<g>
				<polygon class="arrow1" points="185.89,96.295 201.202,79.888 184.796,64.575 198.249,64.111 214.657,79.424 199.343,95.831 
									"/>
			</g>
		</g>
	</g>
</g>
<g>
	<g>
		<g>
			
				<rect x="419.25" y="62.651" transform="matrix(-0.9984 0.0571 -0.0571 -0.9984 871.6039 132.1591)" fill="none" width="29.331" height="31.739"/>
			<g>
				<polygon class="arrow2" points="420.179,95.202 435.117,78.453 418.368,63.514 431.807,62.746 448.557,77.684 433.618,94.434 
									"/>
			</g>
		</g>
	</g>
</g>
<g>
	<g>
		<g>
			
				<rect x="654.574" y="62.651" transform="matrix(-0.9986 0.0526 -0.0526 -0.9986 1341.6809 121.7586)" fill="none" width="29.331" height="31.739"/>
			<g>
				<polygon class="arrow3" points="655.428,95.14 670.441,78.458 653.76,63.444 667.202,62.737 683.885,77.75 668.871,94.432 				
					"/>
			</g>
		</g>
	</g>
</g>
</svg>
