<?xml version="1.0" encoding="iso-8859-1"?>
<!-- Generator: Adobe Illustrator 19.0.0, SVG Export Plug-In . SVG Version: 6.00 Build 0)  -->
<svg version="1.1" id="Layer_1" xmlns="http://www.w3.org/2000/svg" xmlns:xlink="http://www.w3.org/1999/xlink" x="0px" y="0px"
	 viewBox="0 0 511.999 511.999" style="enable-background:new 0 0 511.999 511.999;" xml:space="preserve">
	 <style>
	 	svg *{
	 		-moz-transition:all 0.3s ease-out;
			-o-transition:all 0.3s ease-out;
			-webkit-transition:all 0.3s ease-out;
			transition:all 0.3s ease-out;
	 	}
	 	.yellow-edges path{
			fill:#ECB45D;			
	 	}
	 	.fan{
	 		fill:#CD5838;
	 	}
	 	svg:hover .yellow-edges path{
			fill:#ccc;
	 	}
	 	svg:hover .fan{
	 		fill:#b72c11;
	 	}
	 </style>
<g class="yellow-edges">
	<path d="M353.685,459.127l24.41-15.855c13.267-8.617,25.653-18.645,36.815-29.809
		c11.164-11.163,21.193-23.55,29.809-36.815l15.855-24.41v37.896c0,38.044-30.951,68.995-68.995,68.995h-37.894V459.127z"/>
	<path d="M120.432,459.412c-38.044,0-68.995-30.951-68.995-68.995v-37.896l15.855,24.41
		c8.617,13.267,18.645,25.653,29.809,36.815c11.163,11.164,23.55,21.193,36.815,29.809l24.41,15.855h-37.894V459.412z"/>
	<path d="M444.295,135.115c-8.617-13.267-18.645-25.653-29.809-36.815
		c-11.163-11.164-23.55-21.192-36.815-29.809l-24.411-15.856h37.896c38.044,0,68.995,30.951,68.995,68.995v37.896L444.295,135.115z"
		/>
	<path d="M52.53,120.423c0-38.044,30.951-68.995,68.995-68.995h37.896L135.01,67.283
		c-13.267,8.617-25.653,18.645-36.815,29.809c-11.164,11.163-21.192,23.55-29.809,36.815l-15.855,24.41V120.423z"/>
</g>
<path style="fill:#E6E7E4;" d="M256,29.38c-125.159,0-226.621,101.461-226.621,226.621C29.379,381.16,130.84,482.622,256,482.622
	S482.621,381.16,482.621,256.001C482.621,130.841,381.159,29.38,256,29.38z M256,370.478c-62.407,0-112.998-50.591-112.998-112.998
	S193.593,144.483,256,144.483s112.998,50.591,112.998,112.998S318.407,370.478,256,370.478z"/>
<path style="fill:#DDDDDD;" d="M256,116.996c-76.771,0-139.005,62.234-139.005,139.005S179.229,395.006,256,395.006
	s139.005-62.236,139.005-139.005C395.005,179.23,332.771,116.996,256,116.996z M256,370.478
	c-62.407,0-112.998-50.591-112.998-112.998S193.593,144.483,256,144.483s112.998,50.591,112.998,112.998
	S318.407,370.478,256,370.478z"/>
<path style="fill:#e4d1cc;" d="M86.915,250.603c0-107.991,75.54-198.328,176.658-221.083c-2.516-0.083-5.038-0.139-7.574-0.139
	c-125.159,0-226.621,101.461-226.621,226.621c0,125.159,101.461,226.621,226.621,226.621c17.168,0,33.886-1.921,49.962-5.538
	C184.31,473.087,86.915,373.225,86.915,250.603z"/>
<path class="fan" d="M154.687,291.239c-3.939-11.287-5.937-23.146-5.937-35.247c0-12.102,1.998-23.961,5.937-35.247
	l1.536-4.399c1.069-3.063-1.025-6.315-4.256-6.609l-60.294-5.481c-3.11,14.962-4.757,30.461-4.757,46.347
	c0,19.654,2.514,38.719,7.218,56.902l57.834-5.258c3.23-0.294,5.325-3.546,4.256-6.609L154.687,291.239z"/>
<polygon style="fill:#A7492E;" points="94.133,307.505 94.133,307.505 61.624,310.46 "/>
<path style="fill:#B72C11;" d="M86.915,250.603c0-15.886,1.647-31.385,4.757-46.347l-55.126-5.011l-7.958-0.723
	c-0.468-0.041-0.931-0.061-1.393-0.061c-7.707,0-14.298,5.504-15.672,13.089c-2.64,14.589-3.979,29.542-3.979,44.443
	c0,14.9,1.339,29.853,3.979,44.445c1.373,7.584,7.954,13.09,15.646,13.09c0.478,0,0.961-0.022,1.457-0.067l32.998-3l32.508-2.956
	C89.43,289.321,86.915,270.257,86.915,250.603z"/>
<path class="fan" d="M302.256,360.037c-0.293-3.23-3.545-5.325-6.608-4.256l-4.399,1.535
	c-11.268,3.932-23.128,5.926-35.249,5.926c-12.121,0-23.981-1.994-35.249-5.926l-4.399-1.535c-3.062-1.068-6.314,1.025-6.608,4.256
	l-7.976,87.732c30.926,17.566,73.175,26.446,110.981,27.689L302.256,360.037z"/>
<path style="fill:#A7492E;" d="M312.749,475.457L312.749,475.457L312.749,475.457z"/>
<path style="fill:#B72C11;" d="M313.468,483.366l-0.719-7.909c-37.807-1.243-80.055-10.122-110.981-27.689l-2.517,27.688
	l-0.719,7.912c-0.751,8.267,4.847,15.619,13.024,17.1c14.524,2.628,29.476,3.96,44.444,3.961
	c14.969-0.001,29.921-1.332,44.445-3.961C308.621,498.986,314.22,491.635,313.468,483.366z"/>
<g>
	<path class="fan" d="M484.801,313.523c-0.459,0-0.921-0.019-1.384-0.059l-123.372-11.217
		c-3.23-0.293-5.325-3.545-4.256-6.608l1.535-4.399c3.931-11.267,5.925-23.127,5.925-35.249c0-12.122-1.994-23.981-5.926-35.249
		l-1.535-4.399c-1.068-3.062,1.025-6.314,4.256-6.608l123.328-11.212c0.503-0.044,0.978-0.066,1.449-0.066
		c7.697,0,14.28,5.504,15.653,13.089c2.64,14.591,3.979,29.545,3.979,44.445c0,14.901-1.339,29.853-3.979,44.444
		C499.102,308.02,492.511,313.523,484.801,313.523z"/>
	<path class="fan" d="M291.247,154.678c-11.287-3.939-23.146-5.937-35.247-5.937c-12.102,0-23.961,1.998-35.247,5.937
		l-4.399,1.536c-3.062,1.069-6.314-1.025-6.609-4.256l-11.213-123.34c-0.751-8.27,4.847-15.621,13.023-17.102
		c14.525-2.628,29.477-3.96,44.445-3.96c14.968,0,29.921,1.331,44.444,3.96c8.177,1.481,13.776,8.832,13.024,17.1l-11.213,123.342
		c-0.293,3.23-3.546,5.325-6.609,4.256L291.247,154.678z"/>
</g>
<path style="fill:#B72C11;" d="M273.005,28.589c9.948-0.917,26.139-2.227,40.479-2.554c-0.49-7.171-5.727-13.195-13.039-14.519
	c-14.524-2.628-29.476-3.96-44.444-3.96c-14.968,0-29.921,1.331-44.445,3.96c-8.176,1.481-13.774,8.832-13.023,17.102l2.305,25.349
	c16.039-9.212,33.309-16.52,51.505-21.613C259.098,30.462,266.018,29.233,273.005,28.589z"/>
<path d="M507.9,210.203c-2.181-12.051-13.02-20.323-25.21-19.194l-1.35,0.123c-3.297-11.472-7.465-22.65-12.457-33.44v-38.045
	c0-42.204-34.335-76.54-76.54-76.54h-38.044c-10.79-4.992-21.969-9.16-33.441-12.457l0.123-1.351
	c1.108-12.191-7.143-23.027-19.194-25.209c-30.064-5.442-61.513-5.442-91.577,0c-12.051,2.18-20.302,13.018-19.194,25.21l0.123,1.35
	c-11.472,3.297-22.65,7.465-33.441,12.457h-38.044c-42.203,0-76.538,34.336-76.538,76.54v38.044
	c-4.992,10.79-9.16,21.969-12.457,33.441l-1.351-0.123c-12.172-1.117-23.027,7.144-25.209,19.194C1.379,225.235,0,240.64,0,255.991
	s1.379,30.757,4.1,45.788c2.049,11.324,11.744,19.293,23.021,19.293c0.723,0,1.454-0.032,2.188-0.1l1.35-0.123
	c3.297,11.472,7.465,22.65,12.457,33.44v38.044c0,42.204,34.335,76.54,76.54,76.54H157.7c10.79,4.992,21.969,9.16,33.441,12.457
	l-0.123,1.351c-1.108,12.191,7.143,23.027,19.194,25.209c15.031,2.721,30.437,4.1,45.788,4.1s30.757-1.379,45.788-4.1
	c12.051-2.18,20.302-13.018,19.194-25.21l-0.123-1.35c11.472-3.297,22.65-7.466,33.44-12.457h38.044
	c42.204,0,76.54-34.335,76.54-76.54v-38.044c4.992-10.79,9.16-21.969,12.457-33.441l1.351,0.123c0.735,0.068,1.463,0.1,2.187,0.1
	c11.277,0,20.972-7.971,23.021-19.293c2.721-15.031,4.1-30.437,4.1-45.788S510.621,225.235,507.9,210.203z M392.344,59.275
	c33.29,0,60.372,27.082,60.372,60.372v8.788c-8.909-13.715-19.264-26.538-30.943-38.217s-24.502-22.034-38.217-30.943
	C383.556,59.275,392.344,59.275,392.344,59.275z M213.091,20.001c28.166-5.097,57.65-5.097,85.817,0
	c3.75,0.679,6.316,4.047,5.973,7.835l-0.737,8.1v0.002l-10.055,110.598c-12.195-4.257-24.961-6.419-38.09-6.419
	c-13.129,0-25.894,2.162-38.09,6.419l-10.053-110.6v-0.002l-0.737-8.099C206.775,24.049,209.342,20.68,213.091,20.001z
	 M346.557,214.226c6.071,13.138,9.148,27.191,9.148,41.765s-3.077,28.627-9.148,41.765c-9.944,21.52-27.272,38.848-48.792,48.792
	c-13.138,6.071-27.191,9.148-41.765,9.148c-14.574,0-28.627-3.077-41.765-9.148c-21.52-9.944-38.848-27.272-48.792-48.792
	c-6.071-13.138-9.148-27.191-9.148-41.765c0-14.574,3.077-28.627,9.148-41.765c9.944-21.52,27.272-38.848,48.792-48.792
	c13.138-6.071,27.191-9.148,41.765-9.148c14.574,0,28.627,3.077,41.765,9.148C319.285,175.378,336.614,192.707,346.557,214.226z
	 M59.284,119.647c0-33.29,27.082-60.372,60.372-60.372h8.788c-13.715,8.909-26.538,19.264-38.217,30.943
	s-22.034,24.502-30.943,38.217V119.647z M192.633,47.058l9.658,106.242c-20.913,10.955-38.027,28.068-48.982,48.982l-106.242-9.658
	C68.176,122.796,122.805,68.167,192.633,47.058z M35.946,304.135h-0.002l-8.099,0.737c-3.8,0.341-7.157-2.224-7.836-5.973
	c-2.547-14.083-3.839-28.52-3.839-42.909s1.292-28.825,3.841-42.909c0.679-3.75,4.067-6.299,7.835-5.973l8.1,0.737h0.002
	l110.598,10.055c-4.257,12.195-6.419,24.961-6.419,38.09c0,13.129,2.162,25.894,6.419,38.09L35.946,304.135z M119.656,452.707
	c-33.29,0-60.372-27.082-60.372-60.371v-8.788c8.909,13.715,19.264,26.538,30.943,38.217s24.502,22.034,38.217,30.943h-8.788
	V452.707z M192.633,464.925C122.805,443.815,68.176,389.188,47.066,319.36l106.242-9.658c10.955,20.913,28.068,38.027,48.982,48.982
	L192.633,464.925z M298.909,491.982c-28.166,5.097-57.65,5.097-85.817,0c-3.75-0.679-6.316-4.047-5.973-7.835l0.737-8.1v-0.002
	l10.054-110.588c12.195,4.256,24.962,6.407,38.091,6.407s25.894-2.151,38.091-6.407l10.054,110.588v0.002l0.737,8.099
	C305.225,487.935,302.658,491.303,298.909,491.982z M452.716,392.336c0,33.29-27.082,60.372-60.372,60.372h-8.788
	c13.715-8.909,26.538-19.264,38.217-30.943c11.679-11.679,22.034-24.502,30.943-38.217V392.336z M319.367,464.925l-9.658-106.242
	c20.913-10.955,38.027-28.068,48.982-48.982l106.242,9.658C443.824,389.188,389.195,443.815,319.367,464.925z M491.991,298.9
	c-0.679,3.75-4.065,6.297-7.835,5.973l-8.1-0.737h-0.002l-110.588-10.054c4.256-12.195,6.407-24.962,6.407-38.091
	c0-13.129-2.151-25.894-6.407-38.091l24.273-2.206c4.164-0.378,7.352-3.87,7.352-8.051l0,0c0-4.754-4.082-8.481-8.816-8.051
	l-29.584,2.689c-10.955-20.913-28.068-38.027-48.982-48.982l9.658-106.242c69.828,21.109,124.457,75.738,145.566,145.566
	l-37.28,3.389c-4.164,0.378-7.352,3.87-7.352,8.051l0,0c0,4.754,4.082,8.481,8.816,8.051l46.937-4.267h0.002l8.099-0.737
	c3.807-0.335,7.157,2.224,7.836,5.973c2.548,14.083,3.841,28.52,3.841,42.909S494.539,284.817,491.991,298.9z"/>
</svg>
