<?xml version="1.0" encoding="iso-8859-1"?>
<!-- Generator: Adobe Illustrator 18.1.1, SVG Export Plug-In . SVG Version: 6.00 Build 0)  -->
<svg xmlns="http://www.w3.org/2000/svg" xmlns:xlink="http://www.w3.org/1999/xlink" version="1.1" id="Capa_1" x="0px" y="0px" viewBox="0 0 511.133 511.133" style="enable-background:new 0 0 511.133 511.133;" xml:space="preserve" width="512px" height="512px">
<g>
	<g>
		<path d="M255.567,0C114.467,0,0,114.75,0,255.567s114.75,255.567,255.567,255.567s255.567-114.75,255.567-255.567    C511.133,114.467,396.667,0,255.567,0z M430.383,119.567L356.15,193.8c-9.067-14.733-21.25-27.2-35.417-36.55l73.95-73.95    C408,93.783,419.9,106.25,430.383,119.567z M255.567,339.717c-46.467,0-84.15-37.683-84.15-84.15s37.683-84.15,84.15-84.15    s84.15,37.683,84.15,84.15S302.033,339.717,255.567,339.717z M366.067,63.75l-78.2,78.2c-10.2-2.833-20.967-4.533-32.3-4.533    c-11.9,0-23.517,1.7-34.567,5.1L143.083,64.6c33.15-19.55,71.4-30.6,112.483-30.6C295.8,34,333.483,44.767,366.067,63.75z     M114.75,84.433l73.95,73.95c-14.167,9.633-26.067,22.383-34.85,37.4l-74.233-74.517C89.817,107.667,101.717,95.2,114.75,84.433z     M60.633,150.45l79.617,79.617c-1.7,8.217-2.833,16.717-2.833,25.5c0,11.333,1.7,22.1,4.533,32.3l-78.2,78.2    C44.767,333.483,34,295.8,34,255.567C34,217.6,43.633,181.617,60.633,150.45z M83.3,394.683l73.667-73.95    c9.633,14.167,22.1,26.35,36.55,35.417l-73.95,74.233C106.25,419.9,93.783,408,83.3,394.683z M148.467,449.65l78.767-78.767    c0.283-0.283,0.283-0.567,0.567-0.567c9.067,2.267,18.417,3.4,28.05,3.4c8.783,0,17.283-1.133,25.5-2.833l0,0l79.617,79.617    c-31.45,17-67.15,26.633-105.117,26.633C216.75,477.133,180.2,467.217,148.467,449.65z M389.867,431.517L315.35,357    c14.733-8.783,27.483-20.683,37.4-34.85l73.95,73.95C415.933,409.417,403.467,421.317,389.867,431.517z M446.533,368.05    l-77.917-77.917c3.4-11.05,5.1-22.383,5.1-34.567c0-9.633-1.133-18.983-3.4-27.767l79.333-79.333    c17.567,31.733,27.767,68.283,27.767,107.1C477.133,296.65,466.083,334.9,446.533,368.05z" fill="#8cd790"/>
	</g>
</g>
<g>
</g>
<g>
</g>
<g>
</g>
<g>
</g>
<g>
</g>
<g>
</g>
<g>
</g>
<g>
</g>
<g>
</g>
<g>
</g>
<g>
</g>
<g>
</g>
<g>
</g>
<g>
</g>
<g>
</g>
</svg>
