<?xml version="1.0" encoding="utf-8"?>
<!-- Generator: Adobe Illustrator 17.0.0, SVG Export Plug-In . SVG Version: 6.00 Build 0)  -->
<!DOCTYPE svg PUBLIC "-//W3C//DTD SVG 1.1//EN" "http://www.w3.org/Graphics/SVG/1.1/DTD/svg11.dtd">
<svg version="1.1" id="Layer_1" xmlns="http://www.w3.org/2000/svg" xmlns:xlink="http://www.w3.org/1999/xlink" x="0px" y="0px"
	 width="512px" height="512px" viewBox="0 0 512 512" enable-background="new 0 0 512 512" xml:space="preserve">
<g>
	<g>
		<path fill="#FFFFFF" d="M506,380.299c0,0.005-0.097,0.014-0.099,0.019l-20.011,19.821c-0.005,0.002-0.061-0.139-0.066-0.139
			H26.368c-0.006,0-0.014,0.141-0.019,0.139L6.195,380.247C6.192,380.242,6,380.305,6,380.299V120.616
			c0-0.006,0.192-0.014,0.195-0.019l20.059-19.778c0.005-0.002,0.109,0.182,0.114,0.182h459.455c0.006,0,0.014-0.184,0.019-0.182
			l20.059,19.871c0.002,0.005,0.099-0.079,0.099-0.074V380.299z"/>
		<path fill="none" stroke="#000000" stroke-miterlimit="10" d="M505.5,380.299c0,0.005,0.153,0.014,0.151,0.019l-19.886,20.071
			c-0.005,0.002,0.064,0.111,0.059,0.111H26.368c-0.006,0-0.014-0.109-0.019-0.111L6.445,380.372
			c-0.002-0.005,0.055-0.067,0.055-0.073V120.616c0-0.006-0.058-0.014-0.055-0.019l19.934-20.028
			c0.005-0.002-0.016-0.068-0.011-0.068h459.455c0.006,0,0.014,0.066,0.019,0.068l19.809,19.996
			c0.002,0.005-0.151,0.046-0.151,0.051V380.299z"/>
	</g>
	<g id="XMLID_1_">
		<g>
		</g>
		<g>
			<polyline fill="none" stroke="#CCCCCC" stroke-miterlimit="10" points="56.325,101.657 56.325,158.592 56.325,206.537 
				56.325,252.485 56.325,298.432 56.325,342.382 56.325,399.317 			"/>
			<polyline fill="none" stroke="#CCCCCC" stroke-miterlimit="10" points="116.257,101.657 116.257,158.592 116.257,206.537 
				116.257,252.485 116.257,298.432 116.257,342.382 116.257,399.317 			"/>
			<polyline fill="none" stroke="#CCCCCC" stroke-miterlimit="10" points="186.177,101.657 186.177,158.592 186.177,206.537 
				186.177,252.485 186.177,298.432 186.177,342.382 186.177,399.317 			"/>
			<polyline fill="none" stroke="#CCCCCC" stroke-miterlimit="10" points="256.097,101.657 256.097,158.592 256.097,206.537 
				256.097,252.485 256.097,298.432 256.097,342.382 256.097,399.317 			"/>
			<polyline fill="none" stroke="#CCCCCC" stroke-miterlimit="10" points="316.029,101.657 316.029,158.592 316.029,206.537 
				316.029,252.485 316.029,298.432 316.029,342.382 316.029,399.317 			"/>
			<polyline fill="none" stroke="#CCCCCC" stroke-miterlimit="10" points="383.951,101.657 383.951,158.592 383.951,206.537 
				383.951,252.485 383.951,298.432 383.951,342.382 383.951,399.317 			"/>
			<polyline fill="none" stroke="#CCCCCC" stroke-miterlimit="10" points="453.871,101.657 453.871,158.592 453.871,206.537 
				453.871,252.485 453.871,298.432 453.871,342.382 453.871,399.317 			"/>
			<polyline fill="none" stroke="#CCCCCC" stroke-miterlimit="10" points="7.381,158.592 56.325,158.592 116.257,158.592 
				186.177,158.592 256.097,158.592 316.029,158.592 383.951,158.592 453.871,158.592 504.813,158.592 			"/>
			<polyline fill="none" stroke="#CCCCCC" stroke-miterlimit="10" points="7.381,206.537 56.325,206.537 116.257,206.537 
				186.177,206.537 256.097,206.537 316.029,206.537 383.951,206.537 453.871,206.537 504.813,206.537 			"/>
			<polyline fill="none" stroke="#CCCCCC" stroke-miterlimit="10" points="7.381,252.485 56.325,252.485 116.257,252.485 
				186.177,252.485 256.097,252.485 316.029,252.485 383.951,252.485 453.871,252.485 504.813,252.485 			"/>
			<polyline fill="none" stroke="#CCCCCC" stroke-miterlimit="10" points="7.381,298.432 56.325,298.432 116.257,298.432 
				186.177,298.432 256.097,298.432 316.029,298.432 383.951,298.432 453.871,298.432 504.813,298.432 			"/>
			<polyline fill="none" stroke="#CCCCCC" stroke-miterlimit="10" points="7.381,342.382 56.325,342.382 116.257,342.382 
				186.177,342.382 256.097,342.382 316.029,342.382 383.951,342.382 453.871,342.382 504.813,342.382 			"/>
		</g>
	</g>
</g>
<g>
	<path fill="#00FF00" stroke="#000000" stroke-miterlimit="10" d="M55.5,346.5L55.5,346.5h-12l0,0v-16l0,0h12l0,0V346.5z M49.5,330
		v-0.185V310 M49.5,347v20"/>
	<path fill="#00FF00" stroke="#000000" stroke-miterlimit="10" d="M452.5,216.5L452.5,216.5h-12l0,0v-16l0,0h12l0,0V216.5z
		 M446.5,200v-1.037V180 M446.5,217v20"/>
	<path fill="#00FF00" stroke="#000000" stroke-miterlimit="10" d="M242.5,308.5L242.5,308.5h-12l0,0v-16l0,0h12l0,0V308.5z
		 M236.5,292v-0.142V273 M236.5,309v20"/>
	<path fill="#00FF00" stroke="#000000" stroke-miterlimit="10" d="M276.5,278.5L276.5,278.5h-12l0,0v-16l0,0h12l0,0V278.5z
		 M270.5,262v-1.108V242 M270.5,279v19"/>
	<path fill="#00FF00" stroke="#000000" stroke-miterlimit="10" d="M306.5,236.5L306.5,236.5h-12l0,0v-16l0,0h12l0,0V236.5z
		 M300.5,220v-1.06V200 M300.5,237v20"/>
	<path fill="#00FF00" stroke="#000000" stroke-miterlimit="10" d="M89.5,308.5L89.5,308.5h-12l0,0v-48l0,0h12l0,0V308.5z M83.5,260
		v-1.105V240 M83.5,309v20"/>
	<path fill="#00FF00" stroke="#000000" stroke-miterlimit="10" d="M338.5,200.5L338.5,200.5h-12l0,0v-48l0,0h12l0,0V200.5z
		 M332.5,152v-0.982V132 M332.5,201v20"/>
	<path fill="#FF0000" stroke="#000000" stroke-miterlimit="10" d="M127.5,294.5L127.5,294.5h-12l0,0v-16l0,0h12l0,0V294.5z
		 M121.5,278v-1.126V258 M121.5,295v20"/>
	<path fill="#FF0000" stroke="#000000" stroke-miterlimit="10" d="M161.5,322.5L161.5,322.5h-12l0,0v-16l0,0h12l0,0V322.5z
		 M155.5,306v-0.158V287 M155.5,323v20"/>
	<path fill="#FF0000" stroke="#000000" stroke-miterlimit="10" d="M382.5,216.5L382.5,216.5h-12l0,0v-16l0,0h12l0,0V216.5z
		 M376.5,200v-1.037V180 M376.5,217v20"/>
	<path fill="#FF0000" stroke="#000000" stroke-miterlimit="10" d="M206.5,360.5L206.5,360.5h-12l0,0v-48l0,0h12l0,0V360.5z
		 M200.5,312v-0.165V292 M200.5,361v20"/>
	<path fill="#FF0000" stroke="#000000" stroke-miterlimit="10" d="M422.5,264.5L422.5,264.5h-12l0,0v-48l0,0h12l0,0V264.5z
		 M416.5,216v-1.055V196 M416.5,265v20"/>
</g>
</svg>
