<?xml version="1.0" encoding="utf-8"?>
<!-- Generator: Adobe Illustrator 17.0.0, SVG Export Plug-In . SVG Version: 6.00 Build 0)  -->
<!DOCTYPE svg PUBLIC "-//W3C//DTD SVG 1.1//EN" "http://www.w3.org/Graphics/SVG/1.1/DTD/svg11.dtd">
<svg version="1.1" id="Layer_1" xmlns="http://www.w3.org/2000/svg" xmlns:xlink="http://www.w3.org/1999/xlink" x="0px" y="0px"
	 width="257.746px" height="159.155px" viewBox="0 0 257.746 159.155" enable-background="new 0 0 257.746 159.155"
	 xml:space="preserve">
<g>
	<path fill="#FFFFFF" d="M252.887,144.546c0,0.005,0.248,0.014,0.246,0.019l-9.862,10.237c-0.005,0.002,0.111,0.254,0.106,0.254
		H13.397c-0.005,0-0.014-0.252-0.019-0.254L3.141,144.69c-0.002-0.005-0.254-0.139-0.254-0.144V14.566
		c0-0.005,0.252-0.014,0.254-0.019L13.253,4.81c0.005-0.002,0.139,0.246,0.144,0.246h229.98c0.005,0,0.014-0.248,0.019-0.246
		l9.737,9.862c0.002,0.005-0.246-0.111-0.246-0.106V144.546z"/>
	<path fill="none" stroke="#000000" stroke-miterlimit="10" d="M253.387,144.546c0,0.005-0.002,0.014-0.004,0.019l-9.987,9.987
		c-0.005,0.002-0.014,0.004-0.019,0.004H13.397c-0.005,0-0.014-0.002-0.019-0.004l-9.987-9.987
		c-0.002-0.005-0.004-0.014-0.004-0.019V14.566c0-0.005,0.002-0.014,0.004-0.019l9.987-9.987c0.005-0.002,0.014-0.004,0.019-0.004
		h229.98c0.005,0,0.014,0.002,0.019,0.004l9.987,9.987c0.002,0.005,0.004,0.014,0.004,0.019V144.546z"/>
</g>
<g id="XMLID_1_">
	<g>
	</g>
	<g>
		<polyline fill="none" stroke="#CCCCCC" stroke-miterlimit="10" points="28.387,5.056 28.387,33.556 28.387,57.556 28.387,80.556 
			28.387,103.556 28.387,125.556 28.387,154.056 		"/>
		<polyline fill="none" stroke="#CCCCCC" stroke-miterlimit="10" points="58.387,5.056 58.387,33.556 58.387,57.556 58.387,80.556 
			58.387,103.556 58.387,125.556 58.387,154.056 		"/>
		<polyline fill="none" stroke="#CCCCCC" stroke-miterlimit="10" points="93.387,5.056 93.387,33.556 93.387,57.556 93.387,80.556 
			93.387,103.556 93.387,125.556 93.387,154.056 		"/>
		<polyline fill="none" stroke="#CCCCCC" stroke-miterlimit="10" points="128.387,5.056 128.387,33.556 128.387,57.556 
			128.387,80.556 128.387,103.556 128.387,125.556 128.387,154.056 		"/>
		<polyline fill="none" stroke="#CCCCCC" stroke-miterlimit="10" points="158.387,5.056 158.387,33.556 158.387,57.556 
			158.387,80.556 158.387,103.556 158.387,125.556 158.387,154.056 		"/>
		<polyline fill="none" stroke="#CCCCCC" stroke-miterlimit="10" points="192.387,5.056 192.387,33.556 192.387,57.556 
			192.387,80.556 192.387,103.556 192.387,125.556 192.387,154.056 		"/>
		<polyline fill="none" stroke="#CCCCCC" stroke-miterlimit="10" points="227.387,5.056 227.387,33.556 227.387,57.556 
			227.387,80.556 227.387,103.556 227.387,125.556 227.387,154.056 		"/>
		<polyline fill="none" stroke="#CCCCCC" stroke-miterlimit="10" points="3.887,33.556 28.387,33.556 58.387,33.556 93.387,33.556 
			128.387,33.556 158.387,33.556 192.387,33.556 227.387,33.556 252.887,33.556 		"/>
		<polyline fill="none" stroke="#CCCCCC" stroke-miterlimit="10" points="3.887,57.556 28.387,57.556 58.387,57.556 93.387,57.556 
			128.387,57.556 158.387,57.556 192.387,57.556 227.387,57.556 252.887,57.556 		"/>
		<polyline fill="none" stroke="#CCCCCC" stroke-miterlimit="10" points="3.887,80.556 28.387,80.556 58.387,80.556 93.387,80.556 
			128.387,80.556 158.387,80.556 192.387,80.556 227.387,80.556 252.887,80.556 		"/>
		<polyline fill="none" stroke="#CCCCCC" stroke-miterlimit="10" points="3.887,103.556 28.387,103.556 58.387,103.556 
			93.387,103.556 128.387,103.556 158.387,103.556 192.387,103.556 227.387,103.556 252.887,103.556 		"/>
		<polyline fill="none" stroke="#CCCCCC" stroke-miterlimit="10" points="3.887,125.556 28.387,125.556 58.387,125.556 
			93.387,125.556 128.387,125.556 158.387,125.556 192.387,125.556 227.387,125.556 252.887,125.556 		"/>
	</g>
</g>
<g>
	<path fill="#00FF00" stroke="#000000" stroke-miterlimit="10" d="M28.387,126.556L28.387,126.556h-6l0,0v-8l0,0h6l0,0V126.556z
		 M25.387,118.056v-0.278v-9.722 M25.387,127.056v10"/>
	<path fill="#00FF00" stroke="#000000" stroke-miterlimit="10" d="M227.387,61.556L227.387,61.556h-6l0,0v-8l0,0h6l0,0V61.556z
		 M224.387,53.056v-0.278v-9.722 M224.387,62.056v10"/>
	<path fill="#00FF00" stroke="#000000" stroke-miterlimit="10" d="M122.387,107.556L122.387,107.556h-6l0,0v-8l0,0h6l0,0V107.556z
		 M119.387,99.056v-0.278v-9.722 M119.387,108.056v10"/>
	<path fill="#00FF00" stroke="#000000" stroke-miterlimit="10" d="M139.387,92.556L139.387,92.556h-6l0,0v-8l0,0h6l0,0V92.556z
		 M136.387,84.056v-0.278v-9.722 M136.387,93.056v10"/>
	<path fill="#00FF00" stroke="#000000" stroke-miterlimit="10" d="M154.387,71.556L154.387,71.556h-6l0,0v-8l0,0h6l0,0V71.556z
		 M151.387,63.056v-0.278v-9.722 M151.387,72.056v10"/>
	<path fill="#00FF00" stroke="#000000" stroke-miterlimit="10" d="M45.387,107.556L45.387,107.556h-6l0,0v-24l0,0h6l0,0V107.556z
		 M42.387,83.056v-0.278v-9.722 M42.387,108.056v10"/>
	<path fill="#00FF00" stroke="#000000" stroke-miterlimit="10" d="M170.387,53.556L170.387,53.556h-6l0,0v-24l0,0h6l0,0V53.556z
		 M167.387,29.056v-0.278v-9.722 M167.387,54.056v10"/>
	<path fill="#FF0000" stroke="#000000" stroke-miterlimit="10" d="M64.387,100.556L64.387,100.556h-6l0,0v-8l0,0h6l0,0V100.556z
		 M61.387,92.056v-0.278v-9.722 M61.387,101.056v10"/>
	<path fill="#FF0000" stroke="#000000" stroke-miterlimit="10" d="M81.387,114.556L81.387,114.556h-6l0,0v-8l0,0h6l0,0V114.556z
		 M78.387,106.056v-0.278v-9.722 M78.387,115.056v10"/>
	<path fill="#FF0000" stroke="#000000" stroke-miterlimit="10" d="M192.387,61.556L192.387,61.556h-6l0,0v-8l0,0h6l0,0V61.556z
		 M189.387,53.056v-0.278v-9.722 M189.387,62.056v10"/>
	<path fill="#FF0000" stroke="#000000" stroke-miterlimit="10" d="M104.387,133.556L104.387,133.556h-6l0,0v-24l0,0h6l0,0V133.556z
		 M101.387,109.056v-0.278v-9.722 M101.387,134.056v10"/>
	<path fill="#FF0000" stroke="#000000" stroke-miterlimit="10" d="M212.387,85.556L212.387,85.556h-6l0,0v-24l0,0h6l0,0V85.556z
		 M209.387,61.056v-0.278v-9.722 M209.387,86.056v10"/>
</g>
</svg>
